<?xml version="1.0" encoding="UTF-8" standalone="no"?>
<!DOCTYPE svg PUBLIC "-//W3C//DTD SVG 1.1//EN" "http://www.w3.org/Graphics/SVG/1.1/DTD/svg11.dtd">
<svg width="100%" height="100%" viewBox="0 0 700 700" version="1.1" xmlns="http://www.w3.org/2000/svg" xmlns:xlink="http://www.w3.org/1999/xlink" xml:space="preserve" xmlns:serif="http://www.serif.com/" style="fill-rule:evenodd;clip-rule:evenodd;stroke-linejoin:round;stroke-miterlimit:2;">
    <g>
        <g transform="matrix(1,0,0,1,0.0006,69.9998)">
            <path d="M603.75,17.5L463.75,17.5C458.91,17.5 455,21.422 455,26.25L455,218.75C455,223.578 458.91,227.5 463.75,227.5L525,227.5L525,245L428.75,245C423.91,245 420,248.922 420,253.75L420,280L358.75,280L358.75,227.5L420,227.5C424.84,227.5 428.75,223.578 428.75,218.75L428.75,26.25C428.75,21.422 424.84,17.5 420,17.5L280,17.5C275.16,17.5 271.25,21.422 271.25,26.25L271.25,218.75C271.25,223.578 275.16,227.5 280,227.5L341.25,227.5L341.25,280L280,280L280,253.75C280,248.922 276.09,245 271.25,245L175,245L175,227.5L236.25,227.5C241.09,227.5 245,223.578 245,218.75L245,26.25C245,21.422 241.09,17.5 236.25,17.5L96.25,17.5C91.41,17.5 87.5,21.422 87.5,26.25L87.5,218.75C87.5,223.578 91.41,227.5 96.25,227.5L157.5,227.5L157.5,253.75C157.5,258.578 161.41,262.5 166.25,262.5L262.5,262.5L262.5,280L218.75,280C213.91,280 210,283.922 210,288.75L210,323.75C210,327.371 212.231,330.617 215.609,331.922L323.749,373.512L323.749,455C323.749,458.535 325.874,461.73 329.148,463.086C330.234,463.531 331.37,463.75 332.499,463.75C334.773,463.75 337.015,462.859 338.687,461.187L373.687,426.187C375.331,424.551 376.249,422.32 376.249,420L376.249,373.512L484.389,331.922C487.768,330.617 489.999,327.371 489.999,323.75L489.999,288.75C489.999,283.922 486.089,280 481.249,280L437.499,280L437.499,262.5L533.749,262.5C538.589,262.5 542.499,258.578 542.499,253.75L542.499,227.5L603.749,227.5C608.589,227.5 612.499,223.578 612.499,218.75L612.499,26.25C612.499,21.422 608.589,17.5 603.749,17.5L603.75,17.5ZM288.75,35L411.25,35L411.25,210L288.75,210L288.75,35ZM105,35L227.5,35L227.5,210L105,210L105,35ZM472.5,317.74L364.36,359.33C360.981,360.635 358.751,363.881 358.751,367.502L358.751,416.381L341.251,433.881L341.251,367.502C341.251,363.881 339.02,360.635 335.641,359.33L227.501,317.74L227.501,297.502L472.501,297.502L472.5,317.74ZM595,210L472.5,210L472.5,35L595,35L595,210Z" style="fill:rgb(50,60,105);fill-rule:nonzero;"/>
        </g>
        <g transform="matrix(1,0,0,1,0.0006,69.9998)">
            <rect x="122.5" y="61.25" width="87.5" height="17.5" style="fill:rgb(50,60,105);fill-rule:nonzero;"/>
        </g>
        <g transform="matrix(1,0,0,1,0.0006,69.9998)">
            <rect x="122.5" y="96.25" width="87.5" height="17.5" style="fill:rgb(50,60,105);fill-rule:nonzero;"/>
        </g>
        <g transform="matrix(1,0,0,1,0.0006,69.9998)">
            <rect x="122.5" y="131.25" width="87.5" height="17.5" style="fill:rgb(50,60,105);fill-rule:nonzero;"/>
        </g>
        <g transform="matrix(1,0,0,1,0.0006,69.9998)">
            <rect x="122.5" y="166.25" width="87.5" height="17.5" style="fill:rgb(50,60,105);fill-rule:nonzero;"/>
        </g>
        <g transform="matrix(1,0,0,1,0.0006,69.9998)">
            <rect x="306.25" y="61.25" width="87.5" height="17.5" style="fill:rgb(50,60,105);fill-rule:nonzero;"/>
        </g>
        <g transform="matrix(1,0,0,1,0.0006,69.9998)">
            <rect x="306.25" y="96.25" width="87.5" height="17.5" style="fill:rgb(50,60,105);fill-rule:nonzero;"/>
        </g>
        <g transform="matrix(1,0,0,1,0.0006,69.9998)">
            <rect x="306.25" y="131.25" width="87.5" height="17.5" style="fill:rgb(50,60,105);fill-rule:nonzero;"/>
        </g>
        <g transform="matrix(1,0,0,1,0.0006,69.9998)">
            <rect x="306.25" y="166.25" width="87.5" height="17.5" style="fill:rgb(50,60,105);fill-rule:nonzero;"/>
        </g>
        <g transform="matrix(1,0,0,1,0.0006,69.9998)">
            <rect x="490" y="61.25" width="87.5" height="17.5" style="fill:rgb(50,60,105);fill-rule:nonzero;"/>
        </g>
        <g transform="matrix(1,0,0,1,0.0006,69.9998)">
            <rect x="490" y="96.25" width="87.5" height="17.5" style="fill:rgb(50,60,105);fill-rule:nonzero;"/>
        </g>
        <g transform="matrix(1,0,0,1,0.0006,69.9998)">
            <rect x="490" y="131.25" width="87.5" height="17.5" style="fill:rgb(50,60,105);fill-rule:nonzero;"/>
        </g>
        <g transform="matrix(1,0,0,1,0.0006,69.9998)">
            <rect x="490" y="166.25" width="87.5" height="17.5" style="fill:rgb(50,60,105);fill-rule:nonzero;"/>
        </g>
        <g transform="matrix(1,0,0,1,0.0006,69.9998)">
            <path d="M341.25,472.5L341.25,512.629L329.938,501.317L317.567,513.688L343.817,539.938C345.52,541.641 347.762,542.501 350.001,542.501C352.239,542.501 354.481,541.641 356.188,539.938L382.438,513.688L370.067,501.317L358.751,512.629L358.751,472.5L341.25,472.5Z" style="fill:rgb(50,60,105);fill-rule:nonzero;"/>
        </g>
    </g>
</svg>
