<?xml version="1.0" encoding="UTF-8" standalone="no"?>
<!DOCTYPE svg PUBLIC "-//W3C//DTD SVG 1.1//EN" "http://www.w3.org/Graphics/SVG/1.1/DTD/svg11.dtd">
<svg width="100%" height="100%" viewBox="0 0 700 700" version="1.1" xmlns="http://www.w3.org/2000/svg" xmlns:xlink="http://www.w3.org/1999/xlink" xml:space="preserve" xmlns:serif="http://www.serif.com/" style="fill-rule:evenodd;clip-rule:evenodd;stroke-linejoin:round;stroke-miterlimit:2;">
    <g>
        <g transform="matrix(1,0,0,1,-0.06791,70.0002)">
            <path d="M268.09,160.11C265.817,161.938 263.645,163.88 261.5,165.86C260.766,166.532 259.969,167.13 259.242,167.829C259.18,167.891 259.164,167.977 259.102,168.04C234.282,191.923 218.75,225.399 218.75,262.501C218.75,299.603 234.281,333.079 259.105,356.966C259.167,357.028 259.183,357.114 259.245,357.177C259.972,357.868 260.769,358.474 261.503,359.145C263.655,361.114 265.816,363.067 268.093,364.895C269.249,365.821 270.448,366.653 271.628,367.536C273.765,369.138 275.905,370.731 278.14,372.2C279.609,373.161 281.124,374.028 282.628,374.931C284.675,376.165 286.706,377.407 288.823,378.528C290.589,379.466 292.402,380.271 294.206,381.126C296.167,382.052 298.109,383.017 300.12,383.849C302.124,384.673 304.171,385.353 306.21,386.079C308.128,386.763 310.015,387.497 311.976,388.091C314.206,388.763 316.491,389.282 318.757,389.841C320.605,390.294 322.413,390.821 324.288,391.189C326.905,391.712 329.573,392.048 332.226,392.403C333.819,392.622 335.374,392.927 336.976,393.095C341.292,393.517 345.632,393.751 349.999,393.751C354.365,393.751 358.706,393.517 363.011,393.095C364.62,392.939 366.179,392.622 367.761,392.403C370.421,392.044 373.081,391.712 375.698,391.189C377.569,390.814 379.39,390.286 381.229,389.841C383.495,389.282 385.78,388.775 388.011,388.091C389.971,387.497 391.862,386.763 393.776,386.079C395.815,385.353 397.862,384.669 399.866,383.849C401.885,383.017 403.831,382.056 405.788,381.126C407.589,380.278 409.401,379.462 411.159,378.536C413.276,377.415 415.307,376.165 417.354,374.939C418.85,374.036 420.374,373.181 421.843,372.208C424.081,370.739 426.218,369.146 428.354,367.544C429.534,366.661 430.733,365.829 431.889,364.903C434.163,363.075 436.335,361.134 438.479,359.153C439.214,358.481 440.01,357.884 440.737,357.185C440.8,357.122 440.815,357.036 440.878,356.974C465.718,333.079 481.249,299.603 481.249,262.501C481.249,225.399 465.718,191.923 440.894,168.036C440.831,167.973 440.816,167.887 440.753,167.825C440.027,167.133 439.23,166.528 438.495,165.856C436.343,163.887 434.183,161.934 431.905,160.106C430.749,159.18 429.55,158.348 428.37,157.465C426.234,155.864 424.093,154.27 421.859,152.801C420.39,151.84 418.874,150.973 417.37,150.071C415.323,148.836 413.292,147.594 411.175,146.473C409.417,145.535 407.605,144.731 405.812,143.883C403.843,142.946 401.89,141.985 399.862,141.153C397.866,140.328 395.819,139.649 393.788,138.93C391.862,138.246 389.972,137.512 388.003,136.918C385.773,136.246 383.487,135.727 381.222,135.168C379.374,134.715 377.566,134.188 375.691,133.821C373.073,133.297 370.405,132.961 367.753,132.606C366.159,132.387 364.605,132.082 363.003,131.914C358.706,131.485 354.366,131.25 349.999,131.25C345.632,131.25 341.292,131.485 336.987,131.907C335.378,132.063 333.819,132.379 332.237,132.598C329.577,132.957 326.917,133.289 324.3,133.813C322.429,134.188 320.608,134.715 318.768,135.16C316.503,135.719 314.218,136.227 311.987,136.91C310.026,137.504 308.128,138.239 306.214,138.922C304.183,139.649 302.136,140.321 300.132,141.153C298.112,141.985 296.167,142.953 294.19,143.883C292.397,144.731 290.577,145.535 288.819,146.473C286.702,147.594 284.671,148.844 282.624,150.071C281.128,150.973 279.605,151.828 278.136,152.801C275.897,154.27 273.761,155.864 271.624,157.465C270.444,158.348 269.245,159.18 268.089,160.11L268.09,160.11ZM283.246,170.598C284.715,169.532 286.176,168.446 287.684,167.45C289.328,166.364 291.035,165.375 292.73,164.379C293.91,163.688 295.059,162.934 296.266,162.29C299.16,160.731 302.129,159.305 305.164,157.993C306.215,157.539 307.289,157.168 308.359,156.75C310.504,155.903 312.664,155.079 314.871,154.36C316.121,153.95 317.39,153.598 318.66,153.239C320.762,152.633 322.887,152.082 325.039,151.594C326.336,151.305 327.629,151.024 328.933,150.782C330.359,150.512 331.812,150.336 333.258,150.118C328.543,158.133 322.731,168.888 317.121,181.485C303.121,179.543 290.519,176.446 280.816,172.41C281.616,171.797 282.433,171.196 283.245,170.598L283.246,170.598ZM374.973,151.602C377.125,152.082 379.242,152.645 381.352,153.247C382.621,153.614 383.891,153.965 385.141,154.368C387.344,155.086 389.508,155.907 391.653,156.758C392.711,157.18 393.797,157.547 394.848,158C397.883,159.305 400.86,160.739 403.746,162.297C404.946,162.946 406.102,163.696 407.282,164.387C408.981,165.383 410.684,166.372 412.328,167.457C413.844,168.453 415.305,169.532 416.766,170.606C417.59,171.2 418.395,171.805 419.2,172.426C409.496,176.461 396.895,179.567 382.895,181.5C377.285,168.898 371.485,158.145 366.758,150.133C368.203,150.352 369.652,150.528 371.082,150.797C372.383,151.036 373.676,151.305 374.972,151.602L374.973,151.602ZM463.305,253.752L402.133,253.752C400.934,234.354 395.981,215.303 389.707,198.287C406.953,195.576 421.891,191.06 433.141,185.135C450.196,203.447 461.282,227.326 463.305,253.752ZM433.153,339.869C421.899,333.947 406.965,329.431 389.719,326.717C395.992,309.697 400.946,290.651 402.145,271.252L463.317,271.252C461.282,297.678 450.196,321.557 433.153,339.869ZM416.614,354.51C415.204,355.533 413.805,356.565 412.36,357.522C410.637,358.658 408.852,359.701 407.059,360.752C405.958,361.401 404.88,362.1 403.762,362.705C400.856,364.272 397.864,365.705 394.809,367.018C393.794,367.455 392.743,367.815 391.72,368.217C389.54,369.084 387.352,369.916 385.114,370.639C383.88,371.041 382.63,371.393 381.38,371.748C379.262,372.362 377.118,372.92 374.958,373.401C373.673,373.69 372.383,373.959 371.09,374.205C369.657,374.475 368.204,374.651 366.751,374.869C371.465,366.854 377.278,356.099 382.888,343.502C396.888,345.444 409.49,348.541 419.193,352.577C418.337,353.241 417.482,353.877 416.615,354.51L416.614,354.51ZM325.048,373.408C322.876,372.92 320.743,372.357 318.626,371.756C317.376,371.396 316.122,371.049 314.892,370.646C312.653,369.92 310.466,369.088 308.286,368.224C307.263,367.814 306.212,367.463 305.196,367.025C302.142,365.713 299.157,364.279 296.243,362.713C295.122,362.107 294.048,361.4 292.946,360.76C291.153,359.717 289.368,358.67 287.646,357.529C286.2,356.576 284.802,355.545 283.392,354.517C282.525,353.888 281.669,353.24 280.81,352.592C290.513,348.556 303.115,345.459 317.115,343.517C322.724,356.119 328.525,366.872 333.252,374.884C331.799,374.666 330.338,374.49 328.912,374.22C327.619,373.966 326.334,373.697 325.049,373.408L325.048,373.408ZM236.696,271.248L297.868,271.248C299.067,290.646 304.02,309.697 310.294,326.713C293.048,329.424 278.103,333.94 266.86,339.865C249.805,321.553 238.719,297.674 236.696,271.248ZM266.86,185.131C278.114,191.053 293.059,195.569 310.294,198.283C304.021,215.303 299.067,234.349 297.868,253.748L236.696,253.748C238.719,227.322 249.805,203.443 266.86,185.131ZM350.008,156.256C354.016,162.924 359.231,172.268 364.41,183.283C359.668,183.556 354.863,183.748 350,183.748C345.145,183.748 340.348,183.556 335.613,183.283C340.797,172.275 346.011,162.931 350.008,156.256ZM350,201.248C357.465,201.248 364.691,200.881 371.742,200.311C378.113,216.655 383.351,235.163 384.664,253.749L315.336,253.749C316.649,235.183 321.899,216.675 328.277,200.311C335.328,200.881 342.547,201.248 350,201.248ZM350,323.748C342.535,323.748 335.309,324.115 328.258,324.686C321.887,308.342 316.649,289.834 315.336,271.248L384.664,271.248C383.352,289.814 378.102,308.322 371.723,324.686C364.672,324.115 357.453,323.748 350,323.748ZM364.387,341.713C359.207,352.721 354,362.065 349.992,368.74C345.984,362.072 340.769,352.728 335.59,341.713C340.332,341.44 345.137,341.248 350,341.248C354.856,341.248 359.652,341.44 364.387,341.713Z" style="fill:rgb(50,60,105);fill-rule:nonzero;"/>
        </g>
        <g transform="matrix(1,0,0,1,-0.06791,70.0002)">
            <path d="M210,533.75C210,538.59 213.91,542.5 218.75,542.5L428.75,542.5C433.59,542.5 437.5,538.59 437.5,533.75L437.5,525C437.5,507.457 429.949,490.867 417.008,479.316C418.871,474.461 420,469.246 420,463.75C420,439.625 400.375,420 376.25,420C352.125,420 332.5,439.625 332.5,463.75C332.5,469.246 333.629,474.461 335.492,479.316C330.801,483.5 326.918,488.39 323.75,493.703C320.582,488.391 316.688,483.5 312.008,479.316C313.872,474.461 315.001,469.246 315.001,463.75C315.001,439.625 295.376,420 271.251,420C247.126,420 227.501,439.625 227.501,463.75C227.501,469.246 228.63,474.461 230.493,479.316C217.552,490.867 210.001,507.457 210.001,525L210,533.75ZM376.25,437.5C390.723,437.5 402.5,449.277 402.5,463.75C402.5,468.695 401.047,473.27 398.66,477.227C398.645,477.254 398.617,477.262 398.609,477.289C396.301,481.086 393.156,484.098 389.543,486.266C389.133,486.512 388.711,486.731 388.293,486.95C386.91,487.676 385.457,488.254 383.961,488.715C383.438,488.883 382.918,489.075 382.379,489.204C380.391,489.684 378.352,490 376.25,490C374.149,490 372.11,489.684 370.125,489.204C369.582,489.071 369.067,488.872 368.543,488.715C367.047,488.25 365.594,487.672 364.211,486.95C363.789,486.731 363.371,486.512 362.961,486.266C359.348,484.094 356.196,481.086 353.895,477.289C353.879,477.262 353.852,477.254 353.844,477.227C351.453,473.27 350,468.696 350,463.75C350,449.277 361.777,437.5 376.25,437.5L376.25,437.5ZM345.066,494.359C348.96,498.324 353.597,501.535 358.75,503.793C360.106,504.386 361.543,504.765 362.957,505.218C364.453,505.699 365.898,506.296 367.453,506.617C370.309,507.195 373.25,507.5 376.25,507.5C379.25,507.5 382.191,507.195 385.043,506.609C386.531,506.304 387.914,505.726 389.34,505.269C390.828,504.797 392.332,504.41 393.75,503.781C398.902,501.515 403.543,498.312 407.426,494.347C415.407,502.468 420,513.449 420,524.999L332.5,524.999C332.5,513.448 337.094,502.468 345.066,494.358L345.066,494.359ZM271.25,437.5C285.723,437.5 297.5,449.277 297.5,463.75C297.5,468.695 296.047,473.27 293.66,477.227C293.645,477.254 293.617,477.262 293.609,477.289C291.301,481.086 288.156,484.098 284.543,486.266C284.133,486.512 283.711,486.731 283.293,486.95C281.91,487.676 280.457,488.254 278.961,488.715C278.438,488.883 277.918,489.075 277.379,489.204C275.391,489.684 273.352,490 271.25,490C269.149,490 267.11,489.684 265.125,489.204C264.582,489.071 264.067,488.872 263.543,488.715C262.047,488.25 260.594,487.672 259.211,486.95C258.789,486.731 258.371,486.512 257.961,486.266C254.348,484.094 251.196,481.086 248.895,477.289C248.879,477.262 248.852,477.254 248.844,477.227C246.453,473.27 245,468.696 245,463.75C245,449.277 256.777,437.5 271.25,437.5L271.25,437.5ZM240.066,494.359C243.961,498.324 248.597,501.535 253.75,503.793C255.106,504.386 256.543,504.765 257.957,505.218C259.453,505.699 260.898,506.296 262.453,506.617C265.309,507.195 268.25,507.5 271.25,507.5C274.25,507.5 277.191,507.195 280.043,506.609C281.531,506.304 282.914,505.726 284.34,505.269C285.828,504.797 287.332,504.41 288.75,503.781C293.902,501.515 298.543,498.312 302.426,494.347C310.407,502.468 315,513.449 315,524.999L227.5,524.999C227.5,513.448 232.094,502.468 240.066,494.358L240.066,494.359Z" style="fill:rgb(50,60,105);fill-rule:nonzero;"/>
        </g>
        <g transform="matrix(1,0,0,1,-0.06791,70.0002)">
            <path d="M122.5,131.25C122.5,136.09 126.41,140 131.25,140L236.25,140C241.09,140 245,136.09 245,131.25L245,122.5C245,116.981 244.188,111.578 242.762,106.375L242.848,106.348C242.586,105.402 242.191,104.512 241.887,103.574C241.477,102.313 241.074,101.047 240.582,99.82C240.117,98.664 239.574,97.547 239.051,96.418C238.473,95.191 237.887,93.984 237.23,92.805C236.969,92.34 236.785,91.844 236.512,91.379L236.406,91.441C233.211,86.035 229.273,81.062 224.515,76.812C226.371,71.961 227.5,66.746 227.5,61.25C227.5,37.125 207.875,17.5 183.75,17.5C159.625,17.5 140,37.125 140,61.25C140,66.747 141.129,71.961 142.992,76.816C130.051,88.367 122.5,104.957 122.5,122.5L122.5,131.25ZM183.75,35C198.223,35 210,46.777 210,61.25C210,66.195 208.547,70.769 206.16,74.727C206.145,74.754 206.117,74.762 206.109,74.79C203.801,78.586 200.656,81.598 197.043,83.766C196.629,84 196.211,84.219 195.781,84.438C194.399,85.165 192.945,85.743 191.449,86.204C190.926,86.372 190.406,86.563 189.867,86.692C187.891,87.184 185.852,87.5 183.75,87.5C181.649,87.5 179.61,87.184 177.625,86.704C177.082,86.571 176.567,86.372 176.043,86.215C174.547,85.75 173.094,85.172 171.711,84.45C171.289,84.231 170.871,84.012 170.461,83.766C166.848,81.594 163.696,78.586 161.395,74.79C161.379,74.762 161.352,74.754 161.344,74.727C158.953,70.77 157.5,66.196 157.5,61.25C157.5,46.777 169.277,35 183.75,35L183.75,35ZM152.566,91.859C156.461,95.824 161.097,99.035 166.25,101.293C167.606,101.886 169.043,102.265 170.457,102.718C171.953,103.199 173.398,103.797 174.953,104.117C177.809,104.695 180.75,105 183.75,105C186.75,105 189.691,104.695 192.543,104.109C194.031,103.804 195.414,103.226 196.84,102.769C198.328,102.297 199.832,101.91 201.25,101.281C206.402,99.015 211.043,95.812 214.926,91.847C218.899,95.89 222.032,100.648 224.176,105.831C224.203,105.902 224.219,105.972 224.246,106.034C226.364,111.202 227.5,116.776 227.5,122.499L140,122.499C140,110.948 144.594,99.968 152.566,91.858L152.566,91.859Z" style="fill:rgb(50,60,105);fill-rule:nonzero;"/>
        </g>
        <g transform="matrix(1,0,0,1,-0.06791,70.0002)">
            <path d="M595,105C595,80.875 575.375,61.25 551.25,61.25C527.125,61.25 507.5,80.875 507.5,105C507.5,110.496 508.629,115.711 510.492,120.566C497.551,132.117 490,148.707 490,166.25L490,175C490,179.84 493.91,183.75 498.75,183.75L603.75,183.75C608.59,183.75 612.5,179.84 612.5,175L612.5,166.25C612.5,148.707 604.949,132.117 592.008,120.566C593.872,115.711 595,110.496 595,105L595,105ZM551.25,78.75C565.723,78.75 577.5,90.527 577.5,105C577.5,109.945 576.047,114.519 573.66,118.477C573.645,118.504 573.617,118.512 573.609,118.54C571.301,122.336 568.156,125.348 564.543,127.516C564.133,127.762 563.711,127.981 563.293,128.2C561.91,128.926 560.457,129.504 558.961,129.965C558.438,130.133 557.918,130.325 557.379,130.454C555.391,130.934 553.352,131.25 551.25,131.25C549.149,131.25 547.11,130.934 545.125,130.454C544.582,130.321 544.067,130.122 543.543,129.965C542.047,129.5 540.594,128.922 539.211,128.2C538.789,127.981 538.371,127.762 537.961,127.516C534.348,125.344 531.196,122.336 528.895,118.54C528.879,118.512 528.852,118.504 528.844,118.477C526.453,114.52 525,109.946 525,105C525,90.527 536.777,78.75 551.25,78.75L551.25,78.75ZM595,166.25L507.5,166.25C507.5,154.699 512.094,143.719 520.066,135.609C523.961,139.574 528.597,142.785 533.75,145.043C535.106,145.636 536.543,146.015 537.957,146.468C539.453,146.949 540.898,147.547 542.453,147.867C545.309,148.445 548.25,148.75 551.25,148.75C554.25,148.75 557.191,148.445 560.043,147.859C561.531,147.554 562.914,146.976 564.34,146.519C565.828,146.047 567.332,145.66 568.75,145.031C573.902,142.765 578.543,139.562 582.426,135.597C590.407,143.718 595,154.699 595,166.249L595,166.25Z" style="fill:rgb(50,60,105);fill-rule:nonzero;"/>
        </g>
        <g transform="matrix(1,0,0,1,-0.06791,70.0002)">
            <path d="M503.55,67.113C498.546,63.492 493.339,60.008 488.089,56.754L478.874,71.621C483.765,74.656 488.612,77.914 493.284,81.289L503.55,67.113Z" style="fill:rgb(50,60,105);fill-rule:nonzero;"/>
        </g>
        <g transform="matrix(1,0,0,1,-0.06791,70.0002)">
            <path d="M364.17,35.402L365.158,17.937C360.143,17.656 355.103,17.507 350.002,17.5L346.537,17.527L346.807,35.027L349.987,35C354.745,35.007 359.479,35.14 364.171,35.402L364.17,35.402Z" style="fill:rgb(50,60,105);fill-rule:nonzero;"/>
        </g>
        <g transform="matrix(1,0,0,1,-0.06791,70.0002)">
            <path d="M455.17,39.445L448.158,55.476C453.373,57.761 458.631,60.289 463.795,62.999L471.952,47.511C466.412,44.609 460.761,41.886 455.171,39.445L455.17,39.445Z" style="fill:rgb(50,60,105);fill-rule:nonzero;"/>
        </g>
        <g transform="matrix(1,0,0,1,-0.06791,70.0002)">
            <path d="M383.66,19.652L381.457,37.011C387.16,37.738 392.93,38.675 398.57,39.82L402.035,22.66C395.964,21.445 389.785,20.429 383.66,19.652L383.66,19.652Z" style="fill:rgb(50,60,105);fill-rule:nonzero;"/>
        </g>
        <g transform="matrix(1,0,0,1,-0.06791,70.0002)">
            <path d="M420.12,26.992L415.476,43.863C420.944,45.367 426.511,47.129 432.023,49.086L437.886,32.594C431.96,30.484 425.991,28.613 420.12,26.992L420.12,26.992Z" style="fill:rgb(50,60,105);fill-rule:nonzero;"/>
        </g>
        <g transform="matrix(1,0,0,1,-0.06791,70.0002)">
            <path d="M327.96,18.418C321.765,18.934 315.554,19.68 309.499,20.613L312.186,37.91C317.839,37.027 323.648,36.336 329.441,35.856L327.96,18.418Z" style="fill:rgb(50,60,105);fill-rule:nonzero;"/>
        </g>
        <g transform="matrix(1,0,0,1,-0.06791,70.0002)">
            <path d="M291.23,24.105C285.183,25.488 279.121,27.105 273.23,28.91L278.359,45.64C283.843,43.96 289.48,42.456 295.125,41.159L291.23,24.105Z" style="fill:rgb(50,60,105);fill-rule:nonzero;"/>
        </g>
        <g transform="matrix(1,0,0,1,-0.06791,70.0002)">
            <path d="M238.52,42.297L245.973,58.125C251.18,55.684 256.543,53.383 261.934,51.316L255.641,34.98C249.86,37.203 244.094,39.664 238.52,42.297L238.52,42.297Z" style="fill:rgb(50,60,105);fill-rule:nonzero;"/>
        </g>
        <g transform="matrix(1,0,0,1,-0.06791,70.0002)">
            <path d="M100.14,199.45L116.781,204.833C118.523,199.45 120.492,194.028 122.637,188.696L106.403,182.169C104.113,187.872 102.004,193.681 100.141,199.45L100.14,199.45Z" style="fill:rgb(50,60,105);fill-rule:nonzero;"/>
        </g>
        <g transform="matrix(1,0,0,1,-0.06791,70.0002)">
            <path d="M91.332,235.12L108.578,238.132C109.566,232.444 110.758,226.784 112.094,221.323L95.11,217.131C93.66,222.975 92.399,229.029 91.332,235.119L91.332,235.12Z" style="fill:rgb(50,60,105);fill-rule:nonzero;"/>
        </g>
        <g transform="matrix(1,0,0,1,-0.06791,70.0002)">
            <path d="M87.633,271.71L105.117,272.253C105.301,266.558 105.676,260.78 106.254,255.12L88.84,253.362C88.226,259.425 87.816,265.592 87.633,271.71L87.633,271.71Z" style="fill:rgb(50,60,105);fill-rule:nonzero;"/>
        </g>
        <g transform="matrix(1,0,0,1,-0.06791,70.0002)">
            <path d="M87.691,290.08C87.91,296.1 88.355,302.279 89.011,308.412L106.406,306.549C105.801,300.818 105.383,295.061 105.164,289.436L87.691,290.08Z" style="fill:rgb(50,60,105);fill-rule:nonzero;"/>
        </g>
        <g transform="matrix(1,0,0,1,-0.06791,70.0002)">
            <path d="M112.47,340.32C111.072,334.789 109.845,329.156 108.849,323.554L91.619,326.632C92.697,332.652 93.998,338.698 95.513,344.632L112.47,340.32Z" style="fill:rgb(50,60,105);fill-rule:nonzero;"/>
        </g>
        <g transform="matrix(1,0,0,1,-0.06791,70.0002)">
            <path d="M123.23,372.9C121.058,367.615 119.058,362.209 117.273,356.798L100.664,362.282C102.57,368.075 104.723,373.884 107.043,379.548L123.23,372.9Z" style="fill:rgb(50,60,105);fill-rule:nonzero;"/>
        </g>
        <g transform="matrix(1,0,0,1,-0.06791,70.0002)">
            <path d="M197.23,493.4L207.433,479.181C202.796,475.857 198.218,472.329 193.835,468.697L182.679,482.181C187.366,486.06 192.269,489.829 197.23,493.4Z" style="fill:rgb(50,60,105);fill-rule:nonzero;"/>
        </g>
        <g transform="matrix(1,0,0,1,-0.06791,70.0002)">
            <path d="M181,457.31C176.887,453.4 172.844,449.259 168.984,445.033L156.062,456.845C160.203,461.368 164.523,465.779 168.917,469.978L181,457.31Z" style="fill:rgb(50,60,105);fill-rule:nonzero;"/>
        </g>
        <g transform="matrix(1,0,0,1,-0.06791,70.0002)">
            <path d="M138.48,403.64C135.609,398.73 132.863,393.648 130.316,388.531L114.644,396.308C117.367,401.793 120.296,407.238 123.386,412.496L138.48,403.64Z" style="fill:rgb(50,60,105);fill-rule:nonzero;"/>
        </g>
        <g transform="matrix(1,0,0,1,-0.06791,70.0002)">
            <path d="M157.86,431.95C154.333,427.505 150.903,422.86 147.676,418.141L133.238,428.02C136.703,433.078 140.371,438.055 144.16,442.832L157.86,431.95Z" style="fill:rgb(50,60,105);fill-rule:nonzero;"/>
        </g>
        <g transform="matrix(1,0,0,1,-0.06791,70.0002)">
            <path d="M129.61,173.02C132.122,167.883 134.833,162.782 137.676,157.864L122.52,149.114C119.474,154.391 116.571,159.848 113.891,165.344L129.61,173.02Z" style="fill:rgb(50,60,105);fill-rule:nonzero;"/>
        </g>
        <g transform="matrix(1,0,0,1,-0.06791,70.0002)">
            <path d="M583.41,354.67L600.07,360.018C601.933,354.225 603.605,348.256 605.058,342.291L588.058,338.15C586.707,343.717 585.132,349.279 583.41,354.67L583.41,354.67Z" style="fill:rgb(50,60,105);fill-rule:nonzero;"/>
        </g>
        <g transform="matrix(1,0,0,1,-0.06791,70.0002)">
            <path d="M608.19,232.69L590.979,235.85C592.01,241.467 592.862,247.182 593.491,252.842L610.886,250.889C610.202,244.819 609.3,238.694 608.19,232.69L608.19,232.69Z" style="fill:rgb(50,60,105);fill-rule:nonzero;"/>
        </g>
        <g transform="matrix(1,0,0,1,-0.06791,70.0002)">
            <path d="M532.45,443.46L545.489,455.132C549.61,450.538 553.583,445.788 557.286,441.011L543.477,430.277C540.012,434.722 536.301,439.156 532.45,443.461L532.45,443.46Z" style="fill:rgb(50,60,105);fill-rule:nonzero;"/>
        </g>
        <g transform="matrix(1,0,0,1,-0.06791,70.0002)">
            <path d="M570.67,386.56L586.412,394.201C589.107,388.646 591.611,382.974 593.857,377.342L577.607,370.865C575.498,376.096 573.17,381.388 570.67,386.56L570.67,386.56Z" style="fill:rgb(50,60,105);fill-rule:nonzero;"/>
        </g>
        <g transform="matrix(1,0,0,1,-0.06791,70.0002)">
            <path d="M553.56,416.35L568.083,426.108C571.505,421.026 574.767,415.764 577.806,410.471L562.634,401.756C559.798,406.697 556.747,411.608 553.56,416.35L553.56,416.35Z" style="fill:rgb(50,60,105);fill-rule:nonzero;"/>
        </g>
        <g transform="matrix(1,0,0,1,-0.06791,70.0002)">
            <path d="M507.8,467.36L519.077,480.739C523.722,476.817 528.315,472.661 532.725,468.403L520.553,455.821C516.428,459.817 512.139,463.704 507.799,467.36L507.8,467.36Z" style="fill:rgb(50,60,105);fill-rule:nonzero;"/>
        </g>
        <g transform="matrix(1,0,0,1,-0.06791,70.0002)">
            <path d="M582.41,202.59C584.211,207.953 585.859,213.5 587.285,219.059L604.242,214.684C602.703,208.735 600.945,202.793 599.008,197.016L582.41,202.59Z" style="fill:rgb(50,60,105);fill-rule:nonzero;"/>
        </g>
        <g transform="matrix(1,0,0,1,-0.06791,70.0002)">
            <path d="M456.9,519.75C462.509,517.246 468.072,514.516 473.439,511.656L465.205,496.222C460.201,498.898 455.002,501.437 449.752,503.773L456.9,519.75Z" style="fill:rgb(50,60,105);fill-rule:nonzero;"/>
        </g>
        <g transform="matrix(1,0,0,1,-0.06791,70.0002)">
            <path d="M611.23,306.04L593.816,304.317C593.246,310.075 592.476,315.797 591.531,321.344L608.777,324.286C609.796,318.344 610.628,312.2 611.23,306.04L611.23,306.04Z" style="fill:rgb(50,60,105);fill-rule:nonzero;"/>
        </g>
        <g transform="matrix(1,0,0,1,-0.06791,70.0002)">
            <path d="M504.59,492.12L494.281,477.972C489.644,481.359 484.859,484.605 480.047,487.624L489.356,502.436C494.512,499.206 499.629,495.733 504.59,492.12L504.59,492.12Z" style="fill:rgb(50,60,105);fill-rule:nonzero;"/>
        </g>
        <g transform="matrix(1,0,0,1,-0.06791,70.0002)">
            <path d="M594.8,269.97C594.933,273.302 595.003,276.638 595.003,279.997C595.003,282.388 594.968,284.782 594.898,287.165L612.398,287.645C612.468,285.106 612.503,282.56 612.503,279.997C612.503,276.399 612.433,272.813 612.284,269.243L594.8,269.97Z" style="fill:rgb(50,60,105);fill-rule:nonzero;"/>
        </g>
    </g>
</svg>
