<?xml version="1.0" encoding="UTF-8" standalone="no"?>
<!DOCTYPE svg PUBLIC "-//W3C//DTD SVG 1.1//EN" "http://www.w3.org/Graphics/SVG/1.1/DTD/svg11.dtd">
<svg width="100%" height="100%" viewBox="0 0 1200 1200" version="1.1" xmlns="http://www.w3.org/2000/svg" xmlns:xlink="http://www.w3.org/1999/xlink" xml:space="preserve" xmlns:serif="http://www.serif.com/" style="fill-rule:evenodd;clip-rule:evenodd;stroke-linejoin:round;stroke-miterlimit:2;">
    <g transform="matrix(0.819654,0,0,0.819654,109.094,108.734)">
        <path d="M437.5,1003.3C437.5,927.284 375.867,897.51 331.26,897.51C286.651,897.51 226.47,932.194 226.47,1003.3C226.47,1055.93 217.599,1087.51 209.915,1104.99C206.071,1113.73 212.399,1123.48 221.95,1123.48C225.348,1123.48 228.614,1124.79 231.067,1127.14L246.739,1142.16C251.899,1147.1 260.059,1147.03 265.134,1142L274.017,1133.2C279.353,1127.9 288.029,1128.14 293.068,1133.72L298.623,1139.86C303.978,1145.78 313.322,1145.62 318.471,1139.51L321.916,1135.43C327.182,1129.18 336.799,1129.18 342.064,1135.43L345.509,1139.51C350.654,1145.62 360.001,1145.78 365.357,1139.86L370.912,1133.72C375.951,1128.14 384.627,1127.91 389.963,1133.2L398.846,1142C403.92,1147.03 412.08,1147.1 417.241,1142.16L432.913,1127.14C435.366,1124.79 438.632,1123.48 442.03,1123.48C451.581,1123.48 457.909,1113.73 454.065,1104.99C446.378,1087.51 437.506,1055.93 437.506,1003.3L437.5,1003.3ZM403.125,1012.46C403.125,1053.82 369.48,1087.46 328.125,1087.46C286.77,1087.46 253.125,1053.82 253.125,1012.46C253.125,1005.98 254.039,999.714 255.594,993.71L309.125,993.71C314.394,993.71 319.422,991.491 322.977,987.601L329.614,980.327C336.821,972.429 349.161,972.148 356.722,979.71L365.234,988.222C368.746,991.734 373.515,993.71 378.488,993.71L400.656,993.71C402.211,999.714 403.125,1005.98 403.125,1012.46L403.125,1012.46Z" style="fill:rgb(50,60,105);fill-rule:nonzero;"/>
        <path d="M328.12,281.25C379.897,281.25 421.87,239.277 421.87,187.5C421.87,135.723 379.897,93.75 328.12,93.75C276.343,93.75 234.37,135.723 234.37,187.5C234.37,239.277 276.343,281.25 328.12,281.25ZM328.12,262.5C286.765,262.5 253.12,228.855 253.12,187.5C253.12,184.32 253.386,181.203 253.772,178.125L323.092,178.125C328.108,178.125 332.913,176.117 336.436,172.547L344.214,164.668C351.522,157.266 363.46,157.227 370.816,164.582L378.863,172.629C382.378,176.148 387.148,178.125 392.121,178.125L402.469,178.125C402.855,181.203 403.121,184.32 403.121,187.5C403.121,228.855 369.476,262.5 328.121,262.5L328.12,262.5Z" style="fill:rgb(50,60,105);fill-rule:nonzero;"/>
        <path d="M403.12,609.38C403.12,728.47 499.659,825 618.74,825C737.821,825 834.36,728.461 834.36,609.38C834.36,490.299 737.821,393.76 618.74,393.76C499.659,393.76 403.12,490.299 403.12,609.38ZM548.84,425.56C556.168,433.248 573.028,443.56 610.801,443.56C651.762,443.56 673.68,431.443 683.531,423.685C708.496,432.423 731.117,446.025 750.367,463.396L697.527,463.396C693.043,463.396 688.984,466.037 687.164,470.13C684.293,476.587 676.281,478.877 670.434,474.908L666.184,472.025C663.415,470.146 659.957,469.587 656.739,470.494L608.938,483.974C605.817,484.853 603.219,487.028 601.809,489.946L591.563,511.11C590.524,513.255 588.84,515.017 586.742,516.15L565.742,527.49C562.074,529.47 559.789,533.302 559.789,537.47L559.789,537.786C559.789,544.052 564.867,549.126 571.133,549.126L605.785,549.126C610.285,549.126 613.934,552.775 613.934,557.275C613.934,561.775 617.582,565.423 622.082,565.423L630.996,565.423C635.496,565.423 639.145,561.775 639.145,557.275L639.145,547.708L671.028,565.423L672.446,583.845L662.528,573.927L618.008,573.927C593.403,573.927 569.778,583.564 552.192,600.771C546.629,606.217 543.493,613.673 543.493,621.459C543.493,629.135 546.543,636.494 551.969,641.924L553.789,643.749C559.219,649.174 566.578,652.225 574.254,652.225L589.524,652.225C597.532,652.225 604.024,658.717 604.024,666.725L604.024,673.835L591.399,713.62C588.521,722.694 590.938,732.616 597.669,739.347C602.446,744.124 608.931,746.811 615.689,746.811C637.834,746.811 657.81,733.51 666.349,713.077L671.833,699.952C683.927,671.018 690.153,639.975 690.153,608.616L696.884,608.616C701.774,608.616 705.739,604.652 705.739,599.761L705.739,592.71C705.739,587.82 709.704,583.855 714.595,583.855C719.485,583.855 723.45,579.89 723.45,574.999L723.45,551.972L778.782,607.304C788.458,616.98 801.317,622.687 814.891,623.538C809.243,702.354 757.102,768.328 685.731,794.278C678.985,786.516 662.422,775.216 622.84,775.216C583.485,775.216 561.754,786.388 551.371,794.146C540.73,790.252 530.508,785.537 520.812,779.947L520.812,763.131C520.812,757.553 519.355,752.072 516.59,747.229L493.863,707.456C491.097,702.612 489.64,697.132 489.64,691.554L489.64,674.73C489.64,666.019 486.093,657.683 479.82,651.64C473.847,645.89 465.879,642.675 457.586,642.675L424.898,642.675C424.484,640.25 424.105,637.812 423.777,635.355L442.422,617.91C454.192,606.898 461.914,592.246 464.352,576.312C467.781,553.871 481.618,534.371 501.668,523.726L518.356,514.863C527.281,510.124 532.864,500.843 532.864,490.734C532.864,475.648 520.634,463.418 505.544,463.418L487.114,463.418C505.04,447.227 525.891,434.324 548.841,425.566L548.84,425.56Z" style="fill:rgb(50,60,105);fill-rule:nonzero;"/>
        <path d="M793.13,271.08C789.622,276.783 787.497,283.435 787.497,290.623C787.497,311.334 804.286,328.123 824.997,328.123C842.497,328.123 857.075,316.08 861.212,299.869C861.646,299.889 862.056,299.998 862.497,299.998C877.532,299.998 889.704,288.17 890.474,273.326C902.005,278.388 914.724,281.248 928.122,281.248C931.431,281.248 934.697,281.068 937.919,280.732C939.99,296.861 953.618,309.373 970.31,309.373C972.888,309.373 975.365,309.006 977.771,308.443C982.842,320.018 994.365,328.124 1007.81,328.124C1025.93,328.124 1040.62,313.433 1040.62,295.311C1040.62,292.093 1040.02,289.046 1039.15,286.104C1041.36,282.831 1043.05,279.132 1043.97,275.049C1045,270.499 1045.02,265.956 1044.18,261.651C1043.52,258.261 1044.41,254.675 1046.7,252.093C1051.39,246.804 1054.88,240.339 1056.54,232.956C1060.2,216.8 1054.37,200.761 1042.79,190.499C1052.79,183.761 1059.37,172.339 1059.37,159.374C1059.37,138.983 1043.08,122.479 1022.81,121.968C1022.88,121.062 1023.12,120.218 1023.12,119.284C1023.1,106.811 1015.43,95.081 1004.05,89.968C999.568,87.953 994.99,87.003 990.533,86.972C981.787,86.914 973.42,82.488 969.806,74.523C965.208,64.39 956.118,56.457 944.415,53.808C930.567,50.679 916.825,55.8 908.231,65.906C902.676,72.441 893.501,73.781 885.274,71.344C882.031,70.383 878.551,69.851 874.864,69.844C860.106,69.805 846.485,78.695 840.821,92.321C838.75,97.309 837.825,102.387 837.891,107.321C838.024,117.043 832.356,125.774 823.289,129.29C810.223,134.356 799.848,145.56 796.519,160.278C793.249,174.747 797.667,189.044 806.933,199.243C790.234,204.86 778.121,220.466 778.121,239.063C778.121,251.95 784.023,263.344 793.129,271.083L793.13,271.08ZM909.37,224.998C909.37,210.225 900.749,197.572 888.335,191.459C895.37,186.346 899.995,178.111 899.995,168.748C899.995,160.596 896.472,153.314 890.933,148.178C897.304,145.83 902.523,141.26 905.769,135.385C910.874,138.666 916.914,140.623 923.433,140.623C936.14,140.623 947.03,133.326 952.484,122.764C954.241,121.885 955.995,120.987 957.597,119.85C957.636,134.791 967.894,148.276 983.085,151.709C983.768,151.865 984.44,151.819 985.12,151.932C984.636,154.334 984.37,156.822 984.37,159.373C984.37,168.932 988.058,177.561 993.948,184.182C996.534,187.092 999.542,189.569 1002.92,191.557C1001.78,212.666 991.933,231.467 976.839,244.405C976.55,244.655 976.284,244.933 975.987,245.179C966.249,253.272 954.421,258.898 941.46,261.238C937.121,262.027 932.679,262.499 928.12,262.499C916.108,262.499 904.784,259.589 894.71,254.55C903.57,247.691 909.37,237.07 909.37,224.999L909.37,224.998Z" style="fill:rgb(50,60,105);fill-rule:nonzero;"/>
        <path d="M909.38,918.75C857.603,918.75 815.63,960.723 815.63,1012.5C815.63,1064.28 857.603,1106.25 909.38,1106.25C961.157,1106.25 1003.13,1064.28 1003.13,1012.5C1003.13,960.723 961.157,918.75 909.38,918.75ZM909.38,1087.5C874.263,1087.5 844.79,1063.21 836.673,1030.57C895.04,1029.69 922.755,1005.15 935.841,980.886C944.364,993.652 959.103,1005.01 984.122,1007.4C984.235,1009.09 984.38,1010.78 984.38,1012.5C984.38,1053.86 950.735,1087.5 909.38,1087.5L909.38,1087.5Z" style="fill:rgb(50,60,105);fill-rule:nonzero;"/>
        <path d="M1143.8,506.25C1143.8,480.363 1122.82,459.375 1096.92,459.375C1071.03,459.375 1050.05,480.363 1050.05,506.25C1050.05,509.477 1050.38,512.629 1051,515.672C1050.68,515.668 1050.37,515.625 1050.05,515.625C998.273,515.625 956.3,557.598 956.3,609.375C956.3,661.152 998.273,703.125 1050.05,703.125C1101.83,703.125 1143.8,661.152 1143.8,609.375C1143.8,585.348 1134.69,563.504 1119.82,546.914C1134.07,538.871 1143.8,523.777 1143.8,506.25L1143.8,506.25ZM1050.05,684.37C1010.76,684.37 978.491,653.983 975.359,615.487C1020.86,610.581 1041.23,582.37 1050.17,560.62C1058.44,586.944 1078.02,619.155 1124.04,621.089C1118.39,656.886 1087.41,684.37 1050.05,684.37Z" style="fill:rgb(50,60,105);fill-rule:nonzero;"/>
        <path d="M280.12,652.38C281.675,662.673 282.753,673.614 282.753,684.345C282.753,692.665 289.495,699.415 297.819,699.415C306.143,699.415 312.885,692.669 312.885,684.345C312.885,667.447 310.643,650.349 307.822,635.501C310.576,636.798 313.447,638.028 316.58,639.095C318.193,639.646 319.834,639.907 321.447,639.907C327.717,639.907 333.572,635.966 335.705,629.7C338.393,621.821 334.19,613.262 326.311,610.575C300.893,601.903 297.057,580.493 296.932,579.77C296.822,578.973 296.647,578.188 296.412,577.419C282.861,533.481 237.529,516.564 221.357,511.825C214.08,499.684 199.771,489.208 175.752,489.208C146.01,489.208 131.947,504.712 120.647,517.173C110.839,527.989 104.354,535.134 88.19,535.134C79.866,535.134 73.12,541.88 73.12,550.2C73.12,558.52 79.862,565.266 88.19,565.266C94.561,565.266 100.088,564.438 105.147,563.184C98.483,568.094 92.045,570.711 88.19,570.711C79.866,570.711 73.12,577.457 73.12,585.777C73.12,594.097 79.862,600.843 88.19,600.843C92.925,600.843 98.303,599.761 103.917,597.753C103.866,598.156 103.781,598.546 103.734,598.949C97.581,603.195 91.769,605.355 88.191,605.355C79.866,605.355 73.121,612.101 73.121,620.421C73.121,628.741 79.863,635.487 88.191,635.487C93.312,635.487 99.183,634.221 105.293,631.873C93.82,642.127 80.219,648.639 69.105,648.639C60.784,648.639 54.039,655.386 54.039,663.705C54.039,672.026 60.785,678.771 69.105,678.771C84.05,678.771 99.554,673.041 113.429,663.654C107.034,671.944 99.159,678.166 90.187,681.49C82.386,684.381 78.406,693.052 81.296,700.853C83.55,706.932 89.304,710.689 95.429,710.689C97.171,710.689 98.941,710.385 100.667,709.744C115.093,704.4 127.647,694.732 137.491,681.892C153.659,695.158 174.331,703.122 196.874,703.122C233.136,703.122 264.526,682.497 280.12,652.376L280.12,652.38ZM196.874,684.376C177.929,684.376 160.655,677.259 147.44,665.634C141.503,660.411 136.413,654.275 132.362,647.435C130.178,643.751 128.311,639.873 126.78,635.822C125.116,631.431 123.858,626.853 123.042,622.115C122.425,618.533 122.053,614.873 121.968,611.135C121.948,610.545 121.874,609.971 121.874,609.377C121.874,607.283 122.018,605.229 122.186,603.178C123.401,603.116 124.589,603.026 125.76,602.928C132.651,602.35 138.92,601.217 144.541,599.557C149.518,598.088 153.979,596.205 158.061,594.053C181.225,581.826 190.698,559.826 194.44,541.873C195.577,557.564 200.085,575.307 213.952,581.803C221.671,585.42 227.702,591.78 230.136,599.948C234.105,613.249 244.031,631.249 267.757,633.663C257.644,663.116 229.726,684.378 196.874,684.378L196.874,684.376Z" style="fill:rgb(50,60,105);fill-rule:nonzero;"/>
        <path d="M737.62,215.62L746.995,215.62C752.179,215.62 756.37,211.421 756.37,206.245C756.37,201.069 752.179,196.87 746.995,196.87L737.62,196.87C732.436,196.87 728.245,201.069 728.245,206.245C728.245,211.421 732.44,215.62 737.62,215.62Z" style="fill:rgb(50,60,105);fill-rule:nonzero;"/>
        <path d="M456.37,215.62L465.745,215.62C470.929,215.62 475.12,211.421 475.12,206.245C475.12,201.069 470.929,196.87 465.745,196.87L456.37,196.87C451.186,196.87 446.995,201.069 446.995,206.245C446.995,211.421 451.19,215.62 456.37,215.62Z" style="fill:rgb(50,60,105);fill-rule:nonzero;"/>
        <path d="M550.12,215.62L559.495,215.62C564.679,215.62 568.87,211.421 568.87,206.245C568.87,201.069 564.679,196.87 559.495,196.87L550.12,196.87C544.936,196.87 540.745,201.069 540.745,206.245C540.745,211.421 544.94,215.62 550.12,215.62Z" style="fill:rgb(50,60,105);fill-rule:nonzero;"/>
        <path d="M597,215.62L606.375,215.62C611.559,215.62 615.75,211.421 615.75,206.245C615.75,201.069 611.559,196.87 606.375,196.87L597,196.87C591.816,196.87 587.625,201.069 587.625,206.245C587.625,211.421 591.82,215.62 597,215.62Z" style="fill:rgb(50,60,105);fill-rule:nonzero;"/>
        <path d="M643.87,215.62L653.245,215.62C658.429,215.62 662.62,211.421 662.62,206.245C662.62,201.069 658.429,196.87 653.245,196.87L643.87,196.87C638.686,196.87 634.495,201.069 634.495,206.245C634.495,211.421 638.69,215.62 643.87,215.62Z" style="fill:rgb(50,60,105);fill-rule:nonzero;"/>
        <path d="M690.75,215.62L700.125,215.62C705.309,215.62 709.5,211.421 709.5,206.245C709.5,201.069 705.309,196.87 700.125,196.87L690.75,196.87C685.566,196.87 681.375,201.069 681.375,206.245C681.375,211.421 685.57,215.62 690.75,215.62Z" style="fill:rgb(50,60,105);fill-rule:nonzero;"/>
        <path d="M503.25,215.62L512.625,215.62C517.809,215.62 522,211.421 522,206.245C522,201.069 517.809,196.87 512.625,196.87L503.25,196.87C498.066,196.87 493.875,201.069 493.875,206.245C493.875,211.421 498.07,215.62 503.25,215.62Z" style="fill:rgb(50,60,105);fill-rule:nonzero;"/>
        <path d="M665.62,984.38L656.245,984.38C651.061,984.38 646.87,988.579 646.87,993.755C646.87,998.931 651.061,1003.13 656.245,1003.13L665.62,1003.13C670.804,1003.13 674.995,998.931 674.995,993.755C674.995,988.579 670.804,984.38 665.62,984.38Z" style="fill:rgb(50,60,105);fill-rule:nonzero;"/>
        <path d="M618.75,984.38L609.375,984.38C604.191,984.38 600,988.579 600,993.755C600,998.931 604.191,1003.13 609.375,1003.13L618.75,1003.13C623.934,1003.13 628.125,998.931 628.125,993.755C628.125,988.579 623.934,984.38 618.75,984.38Z" style="fill:rgb(50,60,105);fill-rule:nonzero;"/>
        <path d="M571.88,984.38L562.505,984.38C557.321,984.38 553.13,988.579 553.13,993.755C553.13,998.931 557.321,1003.13 562.505,1003.13L571.88,1003.13C577.064,1003.13 581.255,998.931 581.255,993.755C581.255,988.579 577.064,984.38 571.88,984.38Z" style="fill:rgb(50,60,105);fill-rule:nonzero;"/>
        <path d="M712.5,984.38L703.125,984.38C697.941,984.38 693.75,988.579 693.75,993.755C693.75,998.931 697.941,1003.13 703.125,1003.13L712.5,1003.13C717.684,1003.13 721.875,998.931 721.875,993.755C721.875,988.579 717.684,984.38 712.5,984.38Z" style="fill:rgb(50,60,105);fill-rule:nonzero;"/>
        <path d="M478.12,984.38L468.745,984.38C463.561,984.38 459.37,988.579 459.37,993.755C459.37,998.931 463.561,1003.13 468.745,1003.13L478.12,1003.13C483.304,1003.13 487.495,998.931 487.495,993.755C487.495,988.579 483.304,984.38 478.12,984.38Z" style="fill:rgb(50,60,105);fill-rule:nonzero;"/>
        <path d="M525,984.38L515.625,984.38C510.441,984.38 506.25,988.579 506.25,993.755C506.25,998.931 510.441,1003.13 515.625,1003.13L525,1003.13C530.184,1003.13 534.375,998.931 534.375,993.755C534.375,988.579 530.184,984.38 525,984.38Z" style="fill:rgb(50,60,105);fill-rule:nonzero;"/>
        <path d="M759.38,984.38L750.005,984.38C744.821,984.38 740.63,988.579 740.63,993.755C740.63,998.931 744.821,1003.13 750.005,1003.13L759.38,1003.13C764.564,1003.13 768.755,998.931 768.755,993.755C768.755,988.579 764.564,984.38 759.38,984.38Z" style="fill:rgb(50,60,105);fill-rule:nonzero;"/>
        <path d="M384.38,581.25L375.005,581.25C369.821,581.25 365.63,585.449 365.63,590.625C365.63,595.801 369.821,600 375.005,600L384.38,600C389.564,600 393.755,595.801 393.755,590.625C393.755,585.449 389.564,581.25 384.38,581.25Z" style="fill:rgb(50,60,105);fill-rule:nonzero;"/>
        <path d="M328.12,600L337.495,600C342.679,600 346.87,595.801 346.87,590.625C346.87,585.449 342.679,581.25 337.495,581.25L328.12,581.25C322.936,581.25 318.745,585.449 318.745,590.625C318.745,595.801 322.936,600 328.12,600Z" style="fill:rgb(50,60,105);fill-rule:nonzero;"/>
        <path d="M862.5,581.25C857.316,581.25 853.125,585.449 853.125,590.625C853.125,595.801 857.316,600 862.5,600L871.875,600C877.059,600 881.25,595.801 881.25,590.625C881.25,585.449 877.059,581.25 871.875,581.25L862.5,581.25Z" style="fill:rgb(50,60,105);fill-rule:nonzero;"/>
        <path d="M928.12,590.62C928.12,585.444 923.929,581.245 918.745,581.245L909.37,581.245C904.186,581.245 899.995,585.444 899.995,590.62C899.995,595.796 904.186,599.995 909.37,599.995L918.745,599.995C923.929,599.995 928.12,595.796 928.12,590.62Z" style="fill:rgb(50,60,105);fill-rule:nonzero;"/>
        <path d="M261.88,827.95C263.521,831.255 266.841,833.169 270.294,833.169C271.685,833.169 273.107,832.856 274.443,832.2C279.083,829.903 280.989,824.282 278.693,819.638L274.536,811.232C272.228,806.591 266.626,804.685 261.974,806.982C257.334,809.279 255.427,814.9 257.724,819.544L261.88,827.95Z" style="fill:rgb(50,60,105);fill-rule:nonzero;"/>
        <path d="M241.11,785.92C242.739,789.229 246.063,791.147 249.524,791.147C250.915,791.147 252.325,790.834 253.661,790.182C258.301,787.889 260.216,782.268 257.919,777.627L253.77,769.221C251.481,764.584 245.88,762.685 241.219,764.959C236.579,767.252 234.664,772.873 236.961,777.514L241.11,785.92Z" style="fill:rgb(50,60,105);fill-rule:nonzero;"/>
        <path d="M282.63,869.97C284.259,873.279 287.583,875.197 291.044,875.197C292.435,875.197 293.845,874.884 295.181,874.232C299.821,871.939 301.736,866.318 299.439,861.677L295.29,853.271C293.009,848.634 287.4,846.735 282.739,849.009C278.099,851.302 276.185,856.923 278.481,861.564L282.63,869.97Z" style="fill:rgb(50,60,105);fill-rule:nonzero;"/>
        <path d="M233.01,727.18C230.701,722.539 225.1,720.633 220.448,722.93C215.807,725.227 213.901,730.848 216.198,735.492L220.354,743.898C221.995,747.203 225.315,749.117 228.768,749.117C230.159,749.117 231.581,748.805 232.917,748.148C237.557,745.851 239.464,740.23 237.167,735.586L233.01,727.18Z" style="fill:rgb(50,60,105);fill-rule:nonzero;"/>
        <path d="M927.43,896.58C928.766,897.24 930.176,897.549 931.567,897.549C935.028,897.549 938.352,895.631 939.981,892.322L942.442,887.334C944.739,882.693 942.825,877.072 938.184,874.783C933.559,872.486 927.922,874.4 925.633,879.041L923.172,884.029C920.875,888.67 922.789,894.291 927.43,896.58L927.43,896.58Z" style="fill:rgb(50,60,105);fill-rule:nonzero;"/>
        <path d="M1000.5,748.7C995.84,746.403 990.238,748.317 987.938,752.95L983.782,761.356C981.485,765.997 983.387,771.618 988.032,773.918C989.368,774.578 990.786,774.887 992.18,774.887C995.633,774.887 998.954,772.973 1000.59,769.668L1004.75,761.262C1007.04,756.621 1005.14,750.996 1000.5,748.7L1000.5,748.7Z" style="fill:rgb(50,60,105);fill-rule:nonzero;"/>
        <path d="M967.27,815.95C968.606,816.606 970.016,816.915 971.407,816.915C974.868,816.915 978.192,814.997 979.821,811.688L983.969,803.282C986.266,798.641 984.352,793.02 979.711,790.727C975.071,788.454 969.449,790.348 967.16,794.989L963.012,803.395C960.711,808.036 962.625,813.657 967.27,815.95L967.27,815.95Z" style="fill:rgb(50,60,105);fill-rule:nonzero;"/>
        <path d="M1021.2,706.67C1016.55,704.401 1010.94,706.291 1008.65,710.932L1004.5,719.338C1002.2,723.978 1004.12,729.6 1008.76,731.893C1010.09,732.549 1011.5,732.858 1012.89,732.858C1016.36,732.858 1019.68,730.94 1021.31,727.631L1025.46,719.225C1027.76,714.584 1025.84,708.963 1021.2,706.67L1021.2,706.67Z" style="fill:rgb(50,60,105);fill-rule:nonzero;"/>
        <path d="M958.96,832.75C954.3,830.453 948.698,832.359 946.398,837L942.242,845.406C939.945,850.047 941.847,855.668 946.492,857.968C947.828,858.628 949.246,858.937 950.64,858.937C954.093,858.937 957.414,857.023 959.054,853.718L963.211,845.312C965.507,840.667 963.601,835.046 958.961,832.75L958.96,832.75Z" style="fill:rgb(50,60,105);fill-rule:nonzero;"/>
        <path d="M975.65,417.71C977.279,421.019 980.603,422.937 984.064,422.937C985.455,422.937 986.865,422.624 988.201,421.972C992.841,419.679 994.756,414.058 992.459,409.417L988.31,401.011C986.021,396.366 980.408,394.46 975.759,396.749C971.119,399.042 969.204,404.663 971.501,409.304L975.65,417.71Z" style="fill:rgb(50,60,105);fill-rule:nonzero;"/>
        <path d="M963.31,380.91C964.701,380.91 966.122,380.598 967.458,379.941C972.099,377.644 974.005,372.023 971.708,367.379L967.552,358.973C965.244,354.332 959.642,352.422 954.99,354.723C950.35,357.02 948.443,362.641 950.74,367.285L954.896,375.691C956.537,378.996 959.857,380.91 963.31,380.91L963.31,380.91Z" style="fill:rgb(50,60,105);fill-rule:nonzero;"/>
        <path d="M942.54,338.89C943.931,338.89 945.341,338.578 946.677,337.925C951.317,335.632 953.231,330.011 950.934,325.37L946.786,316.964C944.497,312.319 938.896,310.413 934.235,312.702C929.594,314.995 927.68,320.616 929.977,325.257L934.126,333.663C935.758,336.972 939.079,338.89 942.54,338.89L942.54,338.89Z" style="fill:rgb(50,60,105);fill-rule:nonzero;"/>
        <path d="M996.41,459.75C998.051,463.059 1001.36,464.973 1004.82,464.973C1006.22,464.973 1007.64,464.66 1008.97,464.004C1013.61,461.711 1015.52,456.086 1013.22,451.449L1009.07,443.039C1006.77,438.402 1001.16,436.492 996.504,438.785C991.864,441.078 989.957,446.703 992.254,451.34L996.41,459.75Z" style="fill:rgb(50,60,105);fill-rule:nonzero;"/>
        <path d="M1016.7,500.86C1018.33,504.169 1021.65,506.087 1025.11,506.087C1026.51,506.087 1027.93,505.774 1029.25,505.118C1033.89,502.829 1035.81,497.208 1033.51,492.567L1029.81,485.075C1027.52,480.434 1021.89,478.52 1017.26,480.817C1012.62,483.106 1010.7,488.727 1013,493.368L1016.7,500.86Z" style="fill:rgb(50,60,105);fill-rule:nonzero;"/>
        <path d="M769.76,794.93C766.932,790.61 761.127,789.418 756.78,792.25C752.46,795.098 751.261,800.91 754.108,805.238L759.264,813.07C761.057,815.809 764.053,817.289 767.1,817.289C768.866,817.289 770.651,816.789 772.245,815.746C776.565,812.898 777.764,807.086 774.917,802.758L769.76,794.93Z" style="fill:rgb(50,60,105);fill-rule:nonzero;"/>
        <path d="M795.51,834.1C792.67,829.784 786.869,828.584 782.53,831.42C778.21,834.268 777.011,840.081 779.858,844.408L785.014,852.24C786.807,854.979 789.803,856.459 792.85,856.459C794.616,856.459 796.401,855.959 797.995,854.916C802.315,852.068 803.514,846.256 800.667,841.928L795.51,834.1Z" style="fill:rgb(50,60,105);fill-rule:nonzero;"/>
        <path d="M834.05,909.75C829.73,912.598 828.531,918.41 831.378,922.738L833.757,926.355C835.55,929.094 838.546,930.574 841.593,930.574C843.358,930.574 845.155,930.074 846.737,929.031C851.058,926.183 852.257,920.371 849.409,916.043L847.03,912.426C844.202,908.106 838.378,906.906 834.05,909.75L834.05,909.75Z" style="fill:rgb(50,60,105);fill-rule:nonzero;"/>
        <path d="M823.74,894.08C828.072,891.236 829.271,885.424 826.431,881.1L821.287,873.268C818.439,868.944 812.627,867.752 808.307,870.577C803.975,873.42 802.776,879.233 805.616,883.557L810.76,891.389C812.565,894.131 815.557,895.619 818.608,895.619C820.369,895.619 822.155,895.119 823.741,894.08L823.74,894.08Z" style="fill:rgb(50,60,105);fill-rule:nonzero;"/>
        <path d="M461.12,831.42C456.78,828.58 450.975,829.779 448.14,834.1L442.984,841.932C440.136,846.256 441.335,852.073 445.656,854.92C447.249,855.963 449.035,856.463 450.8,856.463C453.847,856.463 456.843,854.978 458.636,852.244L463.792,844.412C466.64,840.08 465.441,834.267 461.12,831.42L461.12,831.42Z" style="fill:rgb(50,60,105);fill-rule:nonzero;"/>
        <path d="M422.39,873.26L417.234,881.092C414.386,885.416 415.585,891.233 419.906,894.08C421.499,895.123 423.285,895.623 425.05,895.623C428.097,895.623 431.093,894.139 432.886,891.404L438.042,883.572C440.89,879.248 439.691,873.431 435.37,870.584C431.042,867.74 425.229,868.94 422.39,873.26L422.39,873.26Z" style="fill:rgb(50,60,105);fill-rule:nonzero;"/>
        <path d="M486.88,792.25C482.54,789.418 476.735,790.606 473.9,794.93L468.744,802.762C465.896,807.086 467.095,812.903 471.416,815.75C473.009,816.793 474.795,817.293 476.56,817.293C479.607,817.293 482.603,815.808 484.396,813.074L489.552,805.242C492.4,800.914 491.201,795.097 486.88,792.25L486.88,792.25Z" style="fill:rgb(50,60,105);fill-rule:nonzero;"/>
        <path d="M416.14,335.65L421.964,343.002C423.812,345.337 426.562,346.552 429.324,346.552C431.355,346.552 433.417,345.888 435.136,344.525C439.191,341.31 439.878,335.416 436.663,331.357L430.839,324.005C427.624,319.951 421.722,319.255 417.663,322.482C413.612,325.693 412.925,331.588 416.14,335.65L416.14,335.65Z" style="fill:rgb(50,60,105);fill-rule:nonzero;"/>
        <path d="M451.05,379.75C452.898,382.094 455.636,383.313 458.409,383.313C460.441,383.313 462.491,382.652 464.214,381.289C468.281,378.082 468.964,372.184 465.753,368.125L459.941,360.774C456.745,356.723 450.851,356.016 446.777,359.234C442.71,362.441 442.027,368.34 445.238,372.398L451.05,379.75Z" style="fill:rgb(50,60,105);fill-rule:nonzero;"/>
        <path d="M406.04,307.78C410.106,304.573 410.79,298.674 407.579,294.616L401.767,287.264C398.564,283.206 392.677,282.503 388.603,285.725C384.536,288.932 383.853,294.831 387.064,298.889L392.876,306.241C394.724,308.585 397.462,309.803 400.235,309.803C402.271,309.803 404.321,309.143 406.04,307.78L406.04,307.78Z" style="fill:rgb(50,60,105);fill-rule:nonzero;"/>
        <path d="M474.32,409.16L480.144,416.512C481.992,418.848 484.742,420.062 487.504,420.062C489.535,420.062 491.597,419.398 493.316,418.035C497.371,414.82 498.058,408.926 494.843,404.867L489.019,397.515C485.816,393.465 479.902,392.765 475.843,395.992C471.792,399.203 471.109,405.098 474.32,409.16L474.32,409.16Z" style="fill:rgb(50,60,105);fill-rule:nonzero;"/>
        <path d="M797.2,332.73L796.942,333.128C794.141,337.48 795.524,343.082 799.88,345.886C801.391,346.863 803.102,347.32 804.805,347.32C807.981,347.32 811.141,345.715 812.962,342.875C815.762,338.523 814.509,332.723 810.149,329.922C805.805,327.109 800.012,328.367 797.2,332.73L797.2,332.73Z" style="fill:rgb(50,60,105);fill-rule:nonzero;"/>
        <path d="M773.91,385.19C775.504,386.233 777.289,386.733 779.055,386.733C782.101,386.733 785.098,385.249 786.89,382.514L792.047,374.682C794.894,370.358 793.695,364.541 789.375,361.694C785.043,358.85 779.23,360.054 776.395,364.374L771.238,372.206C768.387,376.526 769.586,382.343 773.91,385.19L773.91,385.19Z" style="fill:rgb(50,60,105);fill-rule:nonzero;"/>
        <path d="M750.63,403.54L745.474,411.372C742.626,415.696 743.825,421.513 748.146,424.36C749.74,425.403 751.525,425.903 753.29,425.903C756.337,425.903 759.333,424.419 761.126,421.684L766.282,413.852C769.13,409.528 767.931,403.711 763.61,400.864C759.271,398.032 753.465,399.22 750.63,403.54L750.63,403.54Z" style="fill:rgb(50,60,105);fill-rule:nonzero;"/>
        <path d="M273.57,419.12C274.906,419.776 276.316,420.085 277.707,420.085C281.168,420.085 284.492,418.167 286.121,414.858L290.269,406.448C292.566,401.804 290.652,396.186 286.011,393.893C281.359,391.612 275.749,393.522 273.46,398.155L269.312,406.565C267.011,411.209 268.925,416.823 273.57,419.12L273.57,419.12Z" style="fill:rgb(50,60,105);fill-rule:nonzero;"/>
        <path d="M232.05,503.17C233.386,503.826 234.796,504.135 236.187,504.135C239.648,504.135 242.972,502.217 244.601,498.908L248.749,490.502C251.046,485.861 249.132,480.24 244.491,477.947C239.839,475.681 234.229,477.572 231.94,482.209L227.792,490.615C225.495,495.256 227.405,500.877 232.05,503.17L232.05,503.17Z" style="fill:rgb(50,60,105);fill-rule:nonzero;"/>
        <path d="M294.32,377.08C295.656,377.74 297.074,378.049 298.468,378.049C301.922,378.049 305.242,376.135 306.883,372.83L311.039,364.424C313.336,359.783 311.433,354.162 306.789,351.862C302.136,349.565 296.527,351.471 294.227,356.112L290.071,364.518C287.774,369.162 289.676,374.784 294.321,377.08L294.32,377.08Z" style="fill:rgb(50,60,105);fill-rule:nonzero;"/>
        <path d="M265.27,435.92C260.61,433.635 255.008,435.529 252.708,440.174L248.552,448.584C246.255,453.221 248.157,458.846 252.802,461.139C254.138,461.799 255.556,462.108 256.95,462.108C260.411,462.108 263.724,460.194 265.364,456.885L269.52,448.475C271.817,443.842 269.911,438.217 265.27,435.92L265.27,435.92Z" style="fill:rgb(50,60,105);fill-rule:nonzero;"/>
        <path d="M315.09,335.06C316.426,335.716 317.836,336.025 319.227,336.025C322.688,336.025 326.012,334.107 327.641,330.798L331.789,322.392C334.086,317.751 332.172,312.13 327.531,309.837C322.871,307.564 317.258,309.466 314.98,314.099L310.832,322.505C308.535,327.146 310.449,332.767 315.09,335.06L315.09,335.06Z" style="fill:rgb(50,60,105);fill-rule:nonzero;"/>
    </g>
</svg>
