<?xml version="1.0" encoding="UTF-8" standalone="no"?>
<!DOCTYPE svg PUBLIC "-//W3C//DTD SVG 1.1//EN" "http://www.w3.org/Graphics/SVG/1.1/DTD/svg11.dtd">
<svg width="100%" height="100%" viewBox="0 0 700 700" version="1.1" xmlns="http://www.w3.org/2000/svg" xmlns:xlink="http://www.w3.org/1999/xlink" xml:space="preserve" xmlns:serif="http://www.serif.com/" style="fill-rule:evenodd;clip-rule:evenodd;stroke-linejoin:round;stroke-miterlimit:2;">
    <g transform="matrix(1,0,0,1,-0.0045,70.0371)">
        <path d="M279.01,104.38L164.76,104.38C159.619,104.38 155.451,100.212 155.451,95.071L155.451,56.782C155.451,51.642 159.619,47.474 164.76,47.474L279.01,47.474C284.151,47.474 288.319,51.642 288.319,56.782L288.319,95.134C288.283,100.252 284.127,104.381 279.01,104.381L279.01,104.38ZM288.319,152.04L288.319,142.173C288.319,137.032 284.151,132.864 279.01,132.864L164.76,132.864C159.619,132.864 155.451,137.032 155.451,142.173L155.451,152.04C155.451,157.181 159.619,161.349 164.76,161.349L279.01,161.349C284.151,161.349 288.319,157.181 288.319,152.04ZM288.319,209.009L288.319,199.142C288.319,194.001 284.151,189.833 279.01,189.833L164.76,189.833C159.619,189.833 155.451,194.001 155.451,199.142L155.451,209.009C155.451,214.15 159.619,218.318 164.76,218.318L279.01,218.318C281.479,218.318 283.846,217.337 285.592,215.591C287.338,213.845 288.319,211.478 288.319,209.009ZM411.689,464.869L411.689,503.221C411.689,508.362 415.857,512.53 420.997,512.53L535.247,512.53C540.388,512.53 544.556,508.362 544.556,503.221L544.556,464.869C544.556,459.728 540.388,455.56 535.247,455.56L420.997,455.56C415.857,455.56 411.689,459.728 411.689,464.869ZM411.689,407.9L411.689,417.767C411.689,422.908 415.857,427.076 420.997,427.076L535.247,427.076C540.388,427.076 544.556,422.908 544.556,417.767L544.556,407.963C544.556,402.822 540.388,398.654 535.247,398.654L420.997,398.654C415.857,398.654 411.689,402.822 411.689,407.963L411.689,407.9ZM411.689,350.931L411.689,360.798C411.689,365.939 415.857,370.107 420.997,370.107L535.247,370.107C540.388,370.107 544.556,365.939 544.556,360.798L544.556,350.994C544.556,345.853 540.388,341.685 535.247,341.685L420.997,341.685C415.857,341.685 411.689,345.853 411.689,350.994L411.689,350.931ZM335.732,28.231L335.732,237.301C335.716,244.793 332.751,251.973 327.478,257.293C322.204,262.613 315.048,265.641 307.56,265.723L136.47,265.723C128.927,265.723 121.693,262.731 116.353,257.402C111.013,252.074 108.005,244.843 107.989,237.3L107.989,28.48C107.989,20.926 110.989,13.679 116.329,8.339C121.673,2.996 128.919,-0.004 136.47,-0.004L307.31,-0.004C314.865,-0.004 322.111,2.996 327.451,8.339C332.795,13.679 335.795,20.925 335.795,28.48L335.732,28.231ZM316.806,18.985L126.976,18.985L126.976,246.735L316.806,246.735L316.806,18.985ZM592.026,28.481L592.026,237.301C592.01,244.793 589.045,251.973 583.772,257.293C578.498,262.613 571.342,265.641 563.854,265.723L392.704,265.723C385.149,265.723 377.903,262.723 372.563,257.379C367.219,252.039 364.219,244.793 364.219,237.238L364.219,28.478C364.219,20.923 367.219,13.677 372.563,8.337C377.903,2.993 385.149,-0.007 392.704,-0.007L563.544,-0.007C571.095,-0.007 578.341,2.993 583.685,8.337C589.025,13.677 592.025,20.923 592.025,28.478L592.026,28.481ZM573.038,18.985L383.208,18.985L383.208,246.735L573.038,246.735L573.038,18.985ZM212.368,503.025L212.368,350.985C212.368,345.844 208.2,341.676 203.059,341.676L164.77,341.676C159.629,341.676 155.461,345.844 155.461,350.985L155.461,503.215C155.461,508.356 159.629,512.524 164.77,512.524L203.122,512.524C208.235,512.488 212.368,508.332 212.368,503.215L212.368,503.025ZM288.325,360.855L288.325,350.988C288.325,345.847 284.157,341.679 279.016,341.679L250.161,341.679C245.017,341.679 240.852,345.847 240.852,350.988L240.852,360.855C240.852,365.996 245.017,370.164 250.161,370.164L279.016,370.164C281.485,370.164 283.852,369.183 285.598,367.437C287.344,365.691 288.325,363.324 288.325,360.855ZM288.325,417.824L288.325,407.957C288.325,402.816 284.157,398.648 279.016,398.648L250.161,398.648C245.017,398.648 240.852,402.816 240.852,407.957L240.852,417.824C240.852,422.965 245.017,427.133 250.161,427.133L279.016,427.133C281.497,427.133 283.872,426.144 285.618,424.383C287.368,422.625 288.34,420.242 288.325,417.761L288.325,417.824ZM288.325,474.793L288.325,464.863C288.325,459.723 284.157,455.555 279.016,455.555L250.161,455.555C245.017,455.555 240.852,459.723 240.852,464.863L240.852,474.73C240.852,479.871 245.017,484.039 250.161,484.039L279.016,484.039C284.157,484.039 288.325,479.871 288.325,474.73L288.325,474.793ZM496.955,218.313L535.307,218.313C540.447,218.313 544.615,214.145 544.615,209.004L544.615,56.774C544.615,51.634 540.447,47.466 535.307,47.466L496.955,47.466C491.814,47.466 487.646,51.634 487.646,56.774L487.646,209.004C487.646,214.145 491.814,218.313 496.955,218.313ZM420.998,75.953L449.853,75.953C454.997,75.953 459.161,71.785 459.161,66.644L459.161,56.777C459.161,51.637 454.997,47.469 449.853,47.469L420.998,47.469C415.857,47.469 411.689,51.637 411.689,56.777L411.689,66.644C411.689,71.785 415.857,75.953 420.998,75.953ZM420.998,132.922L449.853,132.922C454.997,132.922 459.161,128.754 459.161,123.613L459.161,113.684C459.161,108.543 454.997,104.375 449.853,104.375L420.998,104.375C415.857,104.375 411.689,108.543 411.689,113.684L411.689,123.551C411.689,128.691 415.857,132.859 420.998,132.859L420.998,132.922ZM420.998,189.891L449.853,189.891C454.997,189.891 459.161,185.723 459.161,180.582L459.161,170.653C459.161,165.512 454.997,161.344 449.853,161.344L420.998,161.344C415.857,161.344 411.689,165.512 411.689,170.653L411.689,180.52C411.689,185.66 415.857,189.828 420.998,189.828L420.998,189.891ZM335.795,322.691L335.795,531.511C335.779,539.003 332.814,546.183 327.541,551.503C322.267,556.823 315.111,559.851 307.623,559.933L136.463,559.933C128.92,559.933 121.686,556.94 116.346,551.612C111.006,546.284 107.998,539.053 107.982,531.51L107.982,322.69C107.982,315.136 110.982,307.889 116.322,302.549C121.666,297.206 128.912,294.206 136.463,294.206L307.303,294.206C314.858,294.206 322.104,297.206 327.444,302.549C332.788,307.889 335.788,315.135 335.788,322.69L335.795,322.691ZM316.807,313.195L126.977,313.195L126.977,541.005L316.807,541.005L316.807,313.195ZM592.027,322.691L592.027,531.511C592.011,539.003 589.046,546.183 583.773,551.503C578.499,556.823 571.343,559.851 563.855,559.933L392.705,559.933C385.15,559.933 377.904,556.933 372.564,551.589C367.22,546.249 364.22,539.003 364.22,531.448L364.22,322.688C364.22,315.133 367.22,307.887 372.564,302.547C377.904,297.203 385.15,294.203 392.705,294.203L563.545,294.203C571.096,294.203 578.342,297.203 583.686,302.547C589.026,307.887 592.026,315.133 592.026,322.688L592.027,322.691ZM573.039,313.195L383.209,313.195L383.209,541.005L573.039,541.005L573.039,313.195Z" style="fill:rgb(50,60,105);fill-rule:nonzero;"/>
    </g>
</svg>
