<?xml version="1.0" encoding="UTF-8" standalone="no"?>
<!DOCTYPE svg PUBLIC "-//W3C//DTD SVG 1.1//EN" "http://www.w3.org/Graphics/SVG/1.1/DTD/svg11.dtd">
<svg width="100%" height="100%" viewBox="0 0 1200 350" version="1.1" xmlns="http://www.w3.org/2000/svg" xmlns:xlink="http://www.w3.org/1999/xlink" xml:space="preserve" xmlns:serif="http://www.serif.com/" style="fill-rule:evenodd;clip-rule:evenodd;stroke-linejoin:round;stroke-miterlimit:2;">
    <g transform="matrix(1,0,0,1,-10.2497,11)">
        <g transform="matrix(1.03154,0,0,1.03154,-16.3838,-8.98059)">
            <g transform="matrix(3.09521,0,0,3.09521,27.3592,-9.28778)">
                <path d="M320.281,79.681C316.33,79.681 313.423,78.705 311.561,76.753C309.699,74.756 308.767,72.146 308.767,68.923L308.767,52.447L300.509,52.447L300.509,44.617L308.767,44.617L308.767,33.86L318.646,33.86L318.646,44.617L326.602,44.617L326.602,52.447L318.646,52.447L318.646,67.698C318.646,70.467 320.009,71.851 322.734,71.851L328.51,71.851L328.51,79.681L320.281,79.681Z" style="fill:rgb(30,42,92);fill-rule:nonzero;"/>
            </g>
            <g transform="matrix(3.09521,0,0,3.09521,27.3592,-9.28778)">
                <path d="M333.52,79.681L333.52,31L343.399,31L343.399,44.617L357.486,44.617C361.483,44.617 364.39,45.616 366.207,47.613C368.069,49.565 369,52.152 369,55.375L369,79.681L359.121,79.681L359.121,56.532C359.121,53.809 357.759,52.447 355.034,52.447L343.399,52.447L343.399,79.681L333.52,79.681Z" style="fill:rgb(30,42,92);fill-rule:nonzero;"/>
            </g>
            <g transform="matrix(3.09521,0,0,3.09521,27.3592,-9.28778)">
                <path d="M261.305,79.681L261.305,44.617L285.271,44.617C289.268,44.617 292.175,45.616 293.992,47.613C295.854,49.565 296.785,52.152 296.785,55.375L296.785,79.681L286.907,79.681L286.907,56.532C286.907,53.809 285.544,52.447 282.819,52.447L271.184,52.447L271.184,79.681L261.305,79.681Z" style="fill:rgb(30,42,92);fill-rule:nonzero;"/>
            </g>
            <g transform="matrix(3.09521,0,0,3.09521,27.3592,-9.28778)">
                <path d="M225.935,95L225.935,87.17L239.886,87.17C242.611,87.17 243.974,85.786 243.974,83.017L243.974,79.681L229.546,79.681C225.549,79.681 222.619,78.682 220.757,76.685C218.94,74.688 218.032,72.101 218.032,68.923L218.032,44.617L227.91,44.617L227.91,67.766C227.91,70.489 229.273,71.851 231.998,71.851L243.633,71.851L243.633,44.617L253.852,44.617L253.852,84.243C253.852,87.465 252.921,90.053 251.059,92.004C249.197,94.001 246.29,95 242.339,95L225.935,95Z" style="fill:rgb(30,42,92);fill-rule:nonzero;"/>
            </g>
            <g transform="matrix(3.09521,0,0,3.09521,27.3592,-9.28778)">
                <path d="M159,80.021L164.5,72.192L199.493,72.192C201.4,72.192 202.354,71.125 202.354,68.992C202.354,66.903 201.4,65.86 199.493,65.86L190.607,65.86C186.564,65.86 183.499,64.952 181.409,63.136C179.32,61.275 178.275,58.62 178.275,55.17C178.275,51.675 179.32,48.997 181.409,47.136C183.544,45.23 186.61,44.277 190.607,44.277L208.963,44.277L208.963,52.106L191.084,52.106C189.131,52.106 188.154,53.06 188.154,54.966C188.154,55.919 188.427,56.668 188.972,57.213C189.517,57.758 190.221,58.03 191.084,58.03L201.264,58.03C204.807,58.03 207.509,58.96 209.371,60.821C211.279,62.637 212.233,65.292 212.233,68.787C212.233,72.328 211.279,75.097 209.371,77.094C207.464,79.045 204.761,80.021 201.264,80.021L159,80.021Z" style="fill:rgb(30,42,92);fill-rule:nonzero;"/>
            </g>
        </g>
        <g transform="matrix(3.09521,0,0,3.09521,27.3592,-9.28778)">
            <path d="M1.223,48.17C1.359,47.486 1.451,46.94 1.496,46.529C1.542,46.074 1.382,45.595 1.018,45.094C1.2,44.365 1.337,43.795 1.428,43.385C1.564,42.975 1.587,42.405 1.496,41.676C1.906,40.491 2.521,39.488 3.342,38.668C4.208,37.848 5.142,37.164 6.145,36.617C7.147,36.025 8.195,35.546 9.289,35.182C10.383,34.772 11.408,34.43 12.365,34.156C12.365,33.974 12.274,33.883 12.092,33.883C11.91,33.883 11.864,33.769 11.955,33.541C14.416,33.085 16.877,32.425 19.338,31.559C21.844,30.693 24.397,29.918 26.994,29.234C29.592,28.551 32.258,28.141 34.992,28.004C37.727,27.822 40.598,28.163 43.606,29.029C43.788,29.576 44.038,30.1 44.357,30.602C44.676,31.103 44.995,31.604 45.315,32.106C45.679,32.561 45.998,33.017 46.272,33.473C46.545,33.928 46.704,34.407 46.75,34.908C47.297,35.41 47.73,35.956 48.049,36.549C48.413,37.096 48.482,37.848 48.254,38.805C47.753,39.169 47.228,39.534 46.682,39.898C46.135,40.263 45.565,40.605 44.973,40.924C42.922,40.423 40.871,40.24 38.82,40.377C36.77,40.514 34.924,40.673 33.283,40.856C32.782,40.309 32.19,40.058 31.506,40.103C30.822,40.103 30.093,40.217 29.318,40.445C28.589,40.628 27.86,40.833 27.131,41.061C26.402,41.243 25.718,41.288 25.08,41.197C24.579,41.653 23.918,41.972 23.098,42.154C22.277,42.291 21.412,42.405 20.5,42.496C20.454,42.724 20.5,42.884 20.637,42.975C20.773,43.066 20.796,43.248 20.705,43.522C21.024,43.932 21.457,44.228 22.004,44.41C22.551,44.547 23.098,44.684 23.645,44.82C24.237,44.957 24.761,45.162 25.217,45.436C25.673,45.663 25.969,46.051 26.106,46.598C26.926,46.643 27.632,46.871 28.225,47.281C28.817,47.646 29.318,48.102 29.729,48.648C30.139,49.195 30.435,49.788 30.617,50.426C30.799,51.018 30.868,51.565 30.822,52.066C31.005,52.522 31.187,52.704 31.369,52.613C31.597,52.522 31.848,52.636 32.121,52.955C32.303,53.639 32.714,54.368 33.352,55.143C34.035,55.872 34.559,56.669 34.924,57.535C35.015,58.902 35.083,60.133 35.129,61.227C35.22,62.32 35.038,63.391 34.582,64.439C33.807,66.445 32.691,68.245 31.232,69.84C29.774,71.435 28.111,72.848 26.242,74.078C24.419,75.263 22.482,76.311 20.432,77.223C18.381,78.089 16.353,78.818 14.348,79.41C14.165,79.365 13.938,79.365 13.664,79.41C13.436,79.456 13.391,79.319 13.527,79C13.117,79.365 12.639,79.592 12.092,79.684C11.591,79.775 11.021,79.798 10.383,79.752C9.79,79.752 9.175,79.729 8.537,79.684C7.945,79.638 7.352,79.661 6.76,79.752C6.395,79.387 6.053,79.023 5.734,78.658C5.461,78.294 5.233,77.861 5.051,77.359C4.823,77.314 4.709,77.177 4.709,76.949C4.755,76.676 4.663,76.539 4.436,76.539C4.436,76.357 4.458,76.22 4.504,76.129C4.549,76.038 4.595,75.947 4.641,75.856C4.823,75.719 4.891,75.628 4.846,75.582C4.846,75.491 4.777,75.423 4.641,75.377C4.549,75.286 4.436,75.195 4.299,75.104C4.208,75.012 4.185,74.898 4.23,74.762C4.458,74.352 4.527,73.873 4.436,73.326C4.39,72.734 4.344,72.141 4.299,71.549C4.253,70.956 4.299,70.41 4.436,69.908C4.572,69.361 4.96,68.906 5.598,68.541C7.466,68.723 9.221,68.632 10.861,68.268C12.548,67.903 14.12,67.402 15.578,66.764C17.082,66.126 18.495,65.442 19.816,64.713C21.184,63.938 22.505,63.232 23.781,62.594C23.918,62.138 24.123,61.751 24.397,61.432C24.715,61.113 25.035,60.816 25.354,60.543C25.673,60.224 25.969,59.905 26.242,59.586C26.516,59.221 26.721,58.788 26.857,58.287C26.903,58.105 26.903,57.968 26.857,57.877C26.812,57.786 26.744,57.717 26.652,57.672C26.561,57.581 26.47,57.49 26.379,57.398C26.288,57.307 26.242,57.171 26.242,56.988C26.106,56.943 25.969,56.897 25.832,56.852C25.741,56.806 25.65,56.783 25.559,56.783C24.374,56.191 23.12,55.69 21.799,55.279C20.477,54.869 19.361,54.413 18.449,53.912C17.902,54.277 17.356,54.368 16.809,54.186C16.262,54.003 15.601,53.821 14.826,53.639C12.912,53.548 11.089,53.365 9.357,53.092C7.671,52.818 6.031,52.34 4.436,51.656C4.344,51.383 4.23,51.155 4.094,50.973C3.957,50.745 3.638,50.676 3.137,50.768C2.818,50.312 2.476,49.902 2.111,49.537C1.792,49.127 1.496,48.671 1.223,48.17ZM76.784,48.468C75.726,48.468 74.584,48.552 73.356,48.722C72.129,48.849 70.923,48.997 69.738,49.166C68.892,49.293 68.067,49.399 67.263,49.483C66.501,49.568 65.803,49.632 65.168,49.674C64.872,50.605 64.576,51.43 64.279,52.149C63.983,52.869 63.666,53.567 63.327,54.244C62.989,54.964 62.671,55.704 62.375,56.466C62.121,57.185 61.867,57.968 61.613,58.815C61.19,59.492 60.83,60.126 60.534,60.719C60.28,61.269 60.069,61.904 59.899,62.623C59.392,63.258 59.011,63.935 58.757,64.654C58.503,65.331 58.313,65.924 58.185,66.432L57.932,67.193C57.678,67.447 57.53,67.659 57.487,67.828C57.445,67.955 57.339,68.082 57.17,68.209C57.128,68.675 56.98,69.14 56.726,69.606C56.641,69.817 56.578,70.029 56.535,70.24C56.493,70.41 56.472,70.537 56.472,70.621C56.472,71.044 56.366,71.319 56.154,71.446C56.197,71.658 56.197,71.891 56.154,72.144C56.112,72.356 56.07,72.568 56.027,72.779C55.9,73.287 55.858,73.689 55.9,73.985C56.027,74.155 56.133,74.303 56.218,74.43C56.345,74.557 56.429,74.726 56.472,74.938C56.726,75.107 56.916,75.213 57.043,75.255C57.212,75.382 57.466,75.53 57.805,75.699L58.376,76.334C58.588,77.561 58.397,78.534 57.805,79.254C57.17,80.058 56.091,80.46 54.567,80.46L53.806,80.46C53.594,80.248 53.467,80.079 53.425,79.952C53.086,79.825 52.811,79.719 52.6,79.635C52.388,79.55 52.198,79.381 52.028,79.127C51.478,78.873 51.034,78.662 50.695,78.492L50.124,78.175L50.124,77.413C49.828,77.032 49.595,76.609 49.426,76.144C49.299,75.678 49.193,75.213 49.108,74.747C49.024,74.366 48.918,74.007 48.791,73.668C48.706,73.329 48.579,73.033 48.41,72.779C48.326,70.325 48.558,68.251 49.108,66.559C49.658,64.866 50.23,63.237 50.822,61.671C51.161,60.825 51.499,59.978 51.838,59.132C52.176,58.243 52.473,57.333 52.727,56.402L53.298,55.768C53.594,55.091 53.827,54.54 53.996,54.117C54.208,53.652 54.419,53.186 54.631,52.721C54.758,52.425 54.864,52.149 54.948,51.896C55.075,51.599 55.181,51.345 55.266,51.134C55.012,51.134 54.779,51.155 54.567,51.197C54.356,51.197 54.144,51.218 53.933,51.261C53.679,51.303 53.446,51.345 53.234,51.388L52.6,51.388C52.303,51.388 52.092,51.367 51.965,51.324C51.499,51.536 50.992,51.642 50.441,51.642L49.426,51.642C49.341,51.599 49.257,51.578 49.172,51.578C48.749,51.578 48.41,51.642 48.156,51.769L46.062,51.769C45.977,51.769 45.871,51.79 45.744,51.832L45.427,51.832C45.131,51.832 44.813,51.811 44.475,51.769C44.136,51.684 43.776,51.536 43.396,51.324C42.888,50.647 42.549,50.287 42.38,50.245L41.809,49.483C41.766,49.23 41.703,48.997 41.618,48.785C41.533,48.531 41.449,48.256 41.364,47.96C41.195,47.537 41.026,47.092 40.856,46.627C40.73,46.119 40.666,45.527 40.666,44.85C40.708,44.511 40.793,44.257 40.92,44.088C41.047,43.919 41.153,43.771 41.237,43.644L41.428,42.691L42.253,42.755L44.03,42.755C45.384,42.755 46.76,42.713 48.156,42.628C49.553,42.501 50.992,42.374 52.473,42.247C53.319,42.162 54.165,42.078 55.012,41.993C55.9,41.908 56.81,41.824 57.741,41.739C57.911,41.358 58.08,40.999 58.249,40.66L58.884,40.343C59.646,40.301 60.175,40.406 60.471,40.66C60.809,40.872 61.084,41.083 61.296,41.295C62.227,41.21 63.158,41.126 64.089,41.041C65.062,40.914 66.036,40.766 67.009,40.597C68.448,40.385 69.886,40.195 71.325,40.025C72.806,39.856 74.224,39.772 75.578,39.772C76.171,39.772 76.742,39.793 77.292,39.835C77.842,39.877 78.35,39.941 78.815,40.025L79.45,40.47C79.577,40.724 79.746,40.956 79.958,41.168C80.212,41.38 80.466,41.591 80.72,41.803C81.228,42.268 81.735,42.818 82.243,43.453C82.751,44.088 82.941,45.019 82.815,46.246C82.476,46.754 82.222,47.05 82.053,47.135L81.481,47.897L80.847,47.833C80.593,47.833 80.36,47.875 80.148,47.96C79.937,48.002 79.725,48.066 79.514,48.15C79.344,48.235 79.175,48.32 79.006,48.404C78.837,48.447 78.646,48.489 78.435,48.531L77.482,48.531C77.271,48.489 77.038,48.468 76.784,48.468ZM106.872,59.957C106.83,60.465 106.872,60.952 106.999,61.417C107.126,61.883 107.274,62.348 107.443,62.813C107.655,63.237 107.845,63.681 108.015,64.147C108.184,64.612 108.311,65.078 108.396,65.543C108.48,66.135 108.48,66.791 108.396,67.511C108.311,68.188 108.163,68.865 107.951,69.542C107.74,70.177 107.465,70.769 107.126,71.319C106.787,71.827 106.385,72.208 105.92,72.462C105.327,73.224 104.608,73.816 103.762,74.239C102.915,74.662 102.132,75.17 101.413,75.763C100.948,76.059 100.419,76.271 99.826,76.397C99.276,76.524 98.705,76.651 98.112,76.778C97.647,77.032 97.097,77.307 96.462,77.604C95.827,77.857 95.171,78.111 94.494,78.365C93.817,78.577 93.14,78.746 92.463,78.873C91.786,78.958 91.193,78.979 90.686,78.937C89.416,79.402 88.168,79.698 86.94,79.825C85.756,79.995 84.359,79.91 82.751,79.571C81.228,79.783 79.81,79.719 78.498,79.381C77.229,79.042 76.086,78.513 75.07,77.794C74.097,77.032 73.23,76.144 72.468,75.128C71.748,74.07 71.156,72.97 70.69,71.827C70.352,69.415 70.437,67.236 70.944,65.289C71.452,63.3 72.172,61.481 73.103,59.83C74.076,58.137 75.176,56.593 76.403,55.196C77.631,53.758 78.815,52.361 79.958,51.007C80.212,51.092 80.402,51.092 80.529,51.007C80.699,50.88 80.847,50.732 80.974,50.563C81.101,50.351 81.228,50.161 81.355,49.991C81.524,49.822 81.714,49.716 81.926,49.674C82.222,49.039 82.645,48.574 83.195,48.277C83.788,47.939 84.253,47.473 84.592,46.881C84.973,46.796 85.29,46.669 85.544,46.5C85.798,46.331 86.031,46.14 86.242,45.929C86.496,45.717 86.75,45.527 87.004,45.357C87.258,45.146 87.554,44.998 87.893,44.913L87.893,44.215C88.654,43.876 89.204,43.495 89.543,43.072C89.924,42.607 90.368,42.057 90.876,41.422C91.257,41.38 91.553,41.358 91.765,41.358C92.019,41.358 92.378,41.316 92.844,41.231C93.182,40.639 93.479,40.195 93.732,39.898C94.029,39.602 94.452,39.285 95.002,38.946C95.51,39.2 96.06,39.37 96.652,39.454C97.287,39.539 97.837,39.814 98.303,40.279C98.345,40.703 98.472,41.041 98.684,41.295C98.895,41.507 99.128,41.718 99.382,41.93C99.636,42.099 99.869,42.289 100.08,42.501C100.334,42.713 100.503,43.009 100.588,43.39C100.757,43.432 100.863,43.411 100.905,43.326C100.99,43.242 101.117,43.22 101.286,43.263C101.413,43.855 101.561,44.257 101.73,44.469C101.9,44.638 102.069,44.998 102.238,45.548C102.027,45.971 101.857,46.415 101.73,46.881C101.646,47.304 101.392,47.621 100.969,47.833C100.926,48.129 101.011,48.298 101.223,48.341C101.434,48.341 101.561,48.447 101.604,48.658C101.646,49.039 101.582,49.314 101.413,49.483C102.429,51.134 103.339,52.89 104.143,54.752C104.947,56.572 105.856,58.307 106.872,59.957ZM98.938,65.987C99.107,65.522 99.318,65.141 99.572,64.845C99.869,64.549 100.038,64.104 100.08,63.512C99.869,63.173 99.742,62.919 99.699,62.75C99.657,62.538 99.636,62.221 99.636,61.798C98.705,60.486 97.901,59.09 97.224,57.608C96.546,56.085 95.785,54.667 94.939,53.356C94.854,53.525 94.706,53.694 94.494,53.863C94.283,54.033 94.05,53.99 93.796,53.736C93.711,54.075 93.563,54.329 93.352,54.498C93.14,54.625 92.907,54.689 92.653,54.689C92.399,54.646 92.124,54.583 91.828,54.498C91.574,54.371 91.342,54.223 91.13,54.054C89.903,55.027 88.676,55.979 87.448,56.91C86.221,57.841 85.121,58.92 84.147,60.148C83.978,60.232 83.872,60.274 83.83,60.274C83.788,60.232 83.661,60.253 83.449,60.338C83.111,61.142 82.688,61.883 82.18,62.56C81.714,63.194 81.249,63.85 80.783,64.527C80.318,65.204 79.916,65.924 79.577,66.686C79.239,67.447 79.048,68.336 79.006,69.352C79.725,69.944 80.572,70.304 81.545,70.431C82.518,70.558 83.513,70.579 84.528,70.494C85.586,70.41 86.602,70.283 87.575,70.113C88.591,69.902 89.522,69.796 90.368,69.796C92.146,69.373 93.669,68.823 94.939,68.146C96.208,67.426 97.541,66.707 98.938,65.987ZM120.964,72.398C120.498,74.091 120.075,75.382 119.694,76.271C119.356,77.117 118.827,78.006 118.107,78.937C117.557,78.852 117.176,78.915 116.965,79.127C116.753,79.339 116.521,79.529 116.267,79.698C115.886,79.783 115.611,79.783 115.441,79.698C115.272,79.614 115.124,79.508 114.997,79.381C114.87,79.296 114.701,79.19 114.489,79.064C114.32,78.979 114.045,78.937 113.664,78.937C113.579,78.598 113.474,78.281 113.347,77.984C113.262,77.688 112.987,77.582 112.521,77.667C112.606,77.329 112.627,77.053 112.585,76.842C112.543,76.588 112.479,76.376 112.395,76.207C112.352,75.995 112.31,75.805 112.268,75.636C112.225,75.424 112.246,75.17 112.331,74.874C112.119,74.874 111.95,74.726 111.823,74.43C111.696,74.134 111.548,73.837 111.379,73.541C111.506,72.779 111.633,72.06 111.76,71.383C111.887,70.706 112.035,70.071 112.204,69.479C112.416,68.886 112.585,68.294 112.712,67.701C112.839,67.109 112.775,66.495 112.521,65.86C112.691,65.987 112.818,65.966 112.902,65.797C112.987,65.585 113.05,65.331 113.093,65.035C113.135,64.697 113.156,64.379 113.156,64.083C113.156,63.745 113.135,63.469 113.093,63.258C113.516,62.158 113.854,61.036 114.108,59.894C114.405,58.709 114.659,57.545 114.87,56.402C115.124,55.26 115.378,54.138 115.632,53.038C115.886,51.938 116.224,50.922 116.647,49.991C117.113,49.907 117.621,49.97 118.171,50.182C118.763,50.351 119.123,50.584 119.25,50.88C120.35,50.033 121.324,49.018 122.17,47.833C123.016,46.606 123.884,45.421 124.772,44.278C125.661,43.136 126.634,42.12 127.692,41.231C128.793,40.343 130.168,39.814 131.818,39.645C132.665,40.279 133.596,40.935 134.611,41.612C135.669,42.247 136.537,43.093 137.214,44.151C137.552,44.321 137.827,44.511 138.039,44.723C138.293,44.892 138.589,45.082 138.928,45.294L138.928,46.056C139.436,46.521 139.838,47.071 140.134,47.706C140.472,48.298 140.769,48.954 141.022,49.674C141.276,50.351 141.53,51.049 141.784,51.769C142.038,52.446 142.334,53.102 142.673,53.736C142.588,53.948 142.546,54.138 142.546,54.308C142.546,54.435 142.567,54.583 142.609,54.752C142.694,54.921 142.757,55.091 142.8,55.26C142.842,55.429 142.842,55.662 142.8,55.958C142.673,57.82 142.059,59.322 140.959,60.465C139.901,61.607 138.61,62.56 137.087,63.321C135.563,64.041 133.934,64.654 132.199,65.162C130.464,65.67 128.898,66.22 127.502,66.813C127.502,66.982 127.565,67.066 127.692,67.066C127.862,67.066 127.925,67.172 127.883,67.384C128.898,68.019 129.702,68.526 130.295,68.907C130.887,69.288 131.438,69.606 131.945,69.859C132.495,70.113 133.067,70.346 133.659,70.558C134.294,70.727 135.161,70.939 136.262,71.192C137.362,71.446 138.208,71.658 138.801,71.827C139.436,71.954 140.007,72.081 140.515,72.208C141.022,72.293 141.53,72.377 142.038,72.462C142.588,72.504 143.35,72.568 144.323,72.652C144.704,73.033 145.021,73.499 145.275,74.049C145.572,74.557 145.762,75.086 145.847,75.636C145.931,76.144 145.952,76.651 145.91,77.159C145.868,77.625 145.72,78.006 145.466,78.302C145.508,78.429 145.593,78.492 145.72,78.492C145.889,78.45 146.058,78.45 146.228,78.492C145.974,78.662 145.762,78.873 145.593,79.127C145.424,79.381 145.254,79.635 145.085,79.889C144.916,80.143 144.725,80.354 144.514,80.523C144.302,80.735 144.006,80.862 143.625,80.904C142.313,81.412 140.663,81.433 138.674,80.968C136.685,80.545 134.167,79.741 131.12,78.556C129.597,77.963 128.348,77.455 127.375,77.032C126.444,76.567 125.619,76.122 124.899,75.699C124.222,75.234 123.588,74.747 122.995,74.239C122.445,73.731 121.768,73.118 120.964,72.398ZM130.041,50.626C129.576,51.303 129.047,51.917 128.454,52.467C127.904,53.017 127.354,53.588 126.804,54.181C126.296,54.731 125.83,55.366 125.407,56.085C124.984,56.762 124.688,57.566 124.519,58.497C126,58.328 127.544,57.926 129.152,57.291C130.76,56.614 132.284,55.979 133.723,55.387C133.553,54.075 133.088,53.017 132.326,52.213C131.607,51.409 130.845,50.88 130.041,50.626ZM164.953,62.369C164.657,62.623 164.403,62.94 164.191,63.321C163.98,63.66 163.768,64.019 163.557,64.4C163.345,64.866 163.112,65.31 162.858,65.733C162.604,66.157 162.287,66.537 161.906,66.876C161.695,67.511 161.483,68.019 161.271,68.399C161.06,68.738 160.721,69.14 160.256,69.606C159.833,71.298 158.838,73.139 157.272,75.128C157.23,75.509 157.103,75.89 156.892,76.271C156.722,76.609 156.532,76.948 156.32,77.286C156.236,77.413 156.151,77.561 156.066,77.731C155.982,77.857 155.918,77.963 155.876,78.048L155.749,78.683C155.537,79.021 155.305,79.317 155.051,79.571C154.797,79.825 154.564,80.058 154.353,80.269C154.268,80.397 154.12,80.566 153.908,80.777L152.956,81.158C149.867,80.735 147.984,79.085 147.307,76.207L147.37,75.572C147.455,75.361 147.518,75.149 147.561,74.938C147.645,74.684 147.73,74.43 147.814,74.176C147.984,73.583 148.174,72.991 148.386,72.398C148.64,71.806 148.999,71.277 149.465,70.812C149.549,70.515 149.74,70.05 150.036,69.415C150.332,68.738 150.84,67.744 151.56,66.432C152.152,65.416 152.618,64.612 152.956,64.019C153.295,63.427 153.57,62.962 153.781,62.623C153.358,61.946 152.85,61.332 152.258,60.782C151.708,59.724 151.221,58.709 150.798,57.735C150.417,56.762 150.121,55.895 149.909,55.133C149.867,54.583 149.803,54.117 149.719,53.736C149.634,53.356 149.549,52.954 149.465,52.53C149.338,52.065 149.232,51.599 149.147,51.134C149.063,50.668 149.021,50.182 149.021,49.674C148.809,49.378 148.682,49.081 148.64,48.785L148.767,48.15C148.894,47.854 148.915,47.473 148.83,47.008C148.745,46.5 148.64,45.992 148.513,45.484C148.428,45.061 148.322,44.596 148.195,44.088C148.111,43.58 148.09,43.072 148.132,42.565C148.174,42.057 148.301,41.591 148.513,41.168C148.767,40.703 149.169,40.301 149.719,39.962L150.798,39.898C151.179,40.11 151.538,40.322 151.877,40.533C152.258,40.703 152.618,40.893 152.956,41.105C153.422,41.316 153.866,41.528 154.289,41.739C154.712,41.951 155.157,42.226 155.622,42.565L156.066,43.453L156.892,44.151L156.892,44.85C156.934,45.019 156.955,45.252 156.955,45.548C156.955,46.098 157.04,46.437 157.209,46.564L157.463,47.325C157.463,47.918 157.526,48.489 157.653,49.039C157.78,49.547 157.907,50.033 158.034,50.499C158.161,50.965 158.288,51.451 158.415,51.959C158.542,52.467 158.563,53.017 158.479,53.609C158.732,53.482 158.944,53.334 159.113,53.165C159.198,53.08 159.283,53.017 159.367,52.975C159.452,52.932 159.536,52.869 159.621,52.784L163.366,47.706L163.239,47.071L164.572,45.802C164.911,45.463 165.228,45.146 165.524,44.85C165.863,44.553 166.138,44.236 166.35,43.898L167.048,43.39C168.402,41.274 170.327,39.962 172.824,39.454L173.713,39.327L173.967,40.152C174.136,40.618 174.475,41.041 174.982,41.422C175.533,41.803 176.104,42.162 176.696,42.501L177.268,42.882C177.479,43.305 177.585,43.622 177.585,43.834C177.585,44.046 177.564,44.236 177.521,44.405L177.775,45.04C177.437,46.056 177.014,46.796 176.506,47.262C176.04,47.727 175.575,48.15 175.109,48.531C174.729,48.87 174.369,49.187 174.03,49.483C173.734,49.737 173.501,50.076 173.332,50.499L172.888,51.007C171.999,51.515 171.428,52.192 171.174,53.038L170.983,53.8L170.222,53.8C170.179,53.8 170.074,53.884 169.904,54.054C169.777,54.181 169.566,54.54 169.27,55.133C168.973,55.556 168.762,55.831 168.635,55.958C168.508,56.085 168.402,56.191 168.317,56.275C168.275,56.445 168.212,56.614 168.127,56.783C168.085,56.91 168.021,57.079 167.937,57.291C167.386,57.841 167.048,58.264 166.921,58.56C166.794,58.815 166.646,59.111 166.477,59.449C166.307,59.788 166.138,60.126 165.969,60.465C165.842,60.761 165.609,61.079 165.271,61.417L164.953,62.369Z" style="fill:rgb(30,42,92);fill-rule:nonzero;"/>
        </g>
    </g>
</svg>
